<svg xmlns="http://www.w3.org/2000/svg" width="14" height="12" viewBox="0 0 14 12">
    <path fill="#FFF" fill-rule="evenodd" d="M13.082.126c-.187-.158-.489-.172-1.005-.014-.36.114-3.547 1.32-6.361 2.484A169.157 169.157 0 0 0 .89 4.678c-.273.086-.862.344-.89.746-.015.259.2.489.617.675.445.23 2.412.89 2.829 1.02.143.488.99 3.345 1.034 3.518a.75.75 0 0 0 .316.46.306.306 0 0 0 .244.1.57.57 0 0 0 .316-.115c.53-.431 1.45-1.393 1.708-1.666 1.135.89 2.37 1.881 2.484 1.996l.015.014c.273.23.56.36.818.36a.813.813 0 0 0 .259-.044c.301-.1.517-.387.588-.775 0-.014.015-.072.043-.172.489-2.126.876-3.992 1.192-5.557.302-1.537.546-3.044.69-3.849.028-.2.057-.358.071-.459.043-.287.072-.617-.143-.804zm-9.334 6.95l6.85-4.538c.014-.014.043-.029.057-.043.014 0 .014-.014.029-.014.014 0 .014 0 .028-.015-.014.015-.028.058-.057.087L8.918 4.175C7.71 5.281 6.132 6.731 5.084 7.68v.014l-.015.014s0 .015-.014.015c0 .014 0 .014-.014.029v.028c-.072.804-.201 2.183-.259 2.8v-.014c-.057-.172-.861-2.915-1.034-3.49z"/>
</svg>
