<svg xmlns="http://www.w3.org/2000/svg" width="49" height="49" viewBox="0 0 49 49">
    <g fill="#FFF" fill-rule="nonzero" opacity=".192">
        <path d="M45.227 3.8C40.857-.6 33.744-.6 29.372 3.8l-7.927 7.98a1.744 1.744 0 0 0 0 2.456 1.716 1.716 0 0 0 2.439 0l7.927-7.981A7.682 7.682 0 0 1 37.3 3.978c2.08 0 4.03.81 5.488 2.278a7.785 7.785 0 0 1 2.262 5.525 7.784 7.784 0 0 1-2.262 5.525L32.422 27.744a7.737 7.737 0 0 1-10.978 0 1.716 1.716 0 0 0-2.439 0 1.744 1.744 0 0 0 0 2.456c2.186 2.2 5.057 3.3 7.928 3.3 2.87 0 5.742-1.1 7.927-3.3l10.367-10.438c2.11-2.123 3.273-4.958 3.273-7.98 0-3.024-1.163-5.858-3.273-7.982z"/>
        <path d="M24.383 35.757l-6.848 6.883a7.845 7.845 0 0 1-5.602 2.32 7.847 7.847 0 0 1-5.603-2.32c-3.089-3.106-3.089-8.158 0-11.263l9.96-10.012a7.848 7.848 0 0 1 5.603-2.32c2.124 0 4.113.825 5.602 2.32a1.754 1.754 0 0 0 2.49 0 1.776 1.776 0 0 0 0-2.502c-4.461-4.484-11.722-4.484-16.185 0L3.84 28.875C1.687 31.04.5 33.93.5 37.01s1.187 5.969 3.34 8.133a11.332 11.332 0 0 0 8.092 3.358c3.065 0 5.939-1.193 8.092-3.358l6.847-6.883a1.776 1.776 0 0 0 0-2.502 1.753 1.753 0 0 0-2.488 0z"/>
    </g>
</svg>
