<svg xmlns="http://www.w3.org/2000/svg" width="75" height="62" viewBox="0 0 75 62">
    <g fill="none" fill-rule="nonzero">
        <path fill="#F03233" d="M74.333 2.623H60.897L36.16 27.065l-3.998 3.965 3.998 3.905 24.737 24.382h13.436L45.748 30.97z"/>
        <path fill="#264C8B" d="M22.904 41.224v-17.08h-2.976v-3.457h7.004v20.507h-4.028z"/>
        <path fill="#264C8B" d="M36.67 49.749c-4.147-.03-9.888-.06-10.31-.12-1.683-.208-3.276-.655-4.809-1.251-2.374-1.014-4.388-2.355-6.131-4.143-1.744-1.73-3.096-3.726-4.118-6.022-.992-2.295-1.473-4.65-1.503-7.183.03-2.564.54-4.889 1.503-7.184 1.022-2.295 2.374-4.292 4.118-6.021a18.083 18.083 0 0 1 6.131-4.143 19.656 19.656 0 0 1 4.81-1.252c.42-.06 6.162-.09 10.31-.12l.03-.03 12.263-9.567h-15.6V.03h-6.613v2.712c-.3 0-.21.03-.27.03-2.104.209-4.238.626-6.042 1.252V0h-6.913v7.213c-1.803 1.103-3.366 2.385-4.87 3.846a29.805 29.805 0 0 0-6.221 9.031C.992 23.43.21 26.827.12 30.702V31.298c.06 3.875.872 7.273 2.315 10.612 1.503 3.428 3.637 6.438 6.222 9.031 1.503 1.49 3.066 2.772 4.869 3.846V62h6.913v-3.994c1.804.626 3.968 1.073 6.042 1.252.03 0-.03 0 .27.03V62h6.613v-2.683h15.631L36.73 49.75h-.06z"/>
    </g>
</svg>
