<svg xmlns="http://www.w3.org/2000/svg" xmlns:xlink="http://www.w3.org/1999/xlink" width="556" height="698" viewBox="0 0 556 698">
    <defs>
        <path id="a" d="M0 0h695.816v697.228H0z"/>
        <linearGradient id="b" x1="0%" x2="100.01%" y1="50.004%" y2="50.004%">
            <stop offset="0%" stop-color="#495884"/>
            <stop offset="14%" stop-color="#526D9B"/>
            <stop offset="39%" stop-color="#618FBE"/>
            <stop offset="62%" stop-color="#6CA7D8"/>
            <stop offset="83%" stop-color="#73B6E8"/>
            <stop offset="100%" stop-color="#75BBED"/>
        </linearGradient>
    </defs>
    <g fill="none" fill-rule="evenodd" style="mix-blend-mode:hard-light">
        <mask id="c" fill="#fff">
            <use xlink:href="#a"/>
        </mask>
        <path fill="url(#b)" d="M-124.215 446.576a2.495 2.495 0 0 1 2.494-2.492 2.495 2.495 0 0 1 2.493 2.492 2.495 2.495 0 0 1-2.493 2.492 2.495 2.495 0 0 1-2.494-2.492zm253.54 33.715a2.495 2.495 0 0 1 2.494 2.492 2.495 2.495 0 0 1-2.494 2.492 2.495 2.495 0 0 1-2.493-2.492 2.495 2.495 0 0 1 2.493-2.492zm-246.901-32.844h51.372l46.727 36.41h144.721c.48 1.813 2.119 3.16 4.081 3.16a4.24 4.24 0 0 0 4.237-4.234 4.24 4.24 0 0 0-4.237-4.234c-2.107 0-3.845 1.55-4.169 3.566H-18.878l-46.727-36.41h-51.971a4.243 4.243 0 0 0-4.145-3.363 4.24 4.24 0 0 0-4.236 4.234 4.24 4.24 0 0 0 4.236 4.235 4.242 4.242 0 0 0 4.145-3.364zm-15.555-149.91a2.495 2.495 0 0 1 2.494 2.492 2.495 2.495 0 0 1-2.494 2.492 2.496 2.496 0 0 1-2.493-2.492 2.496 2.496 0 0 1 2.493-2.492zM504.715 169.81a2.497 2.497 0 0 1 2.494 2.492 2.497 2.497 0 0 1-2.494 2.493 2.496 2.496 0 0 1-2.494-2.493 2.496 2.496 0 0 1 2.494-2.492zm-637.846 134.452a4.242 4.242 0 0 0 4.145-3.363H25.436l184.63-127.725H500.57a4.242 4.242 0 0 0 4.144 3.362 4.24 4.24 0 0 0 4.237-4.234 4.24 4.24 0 0 0-4.237-4.233 4.242 4.242 0 0 0-4.144 3.362H209.52L24.891 299.158h-153.877a4.242 4.242 0 0 0-4.145-3.363 4.24 4.24 0 0 0-4.236 4.234 4.24 4.24 0 0 0 4.236 4.234zm7.022-41.096a2.496 2.496 0 0 1 2.493 2.492 2.496 2.496 0 0 1-2.493 2.492 2.495 2.495 0 0 1-2.494-2.492 2.495 2.495 0 0 1 2.494-2.492zm605.848-127.725a2.495 2.495 0 0 1 2.493 2.492 2.495 2.495 0 0 1-2.493 2.492 2.495 2.495 0 0 1-2.494-2.492 2.495 2.495 0 0 1 2.494-2.492zm-605.848 134.45a4.241 4.241 0 0 0 4.144-3.362H25.436l184.63-127.725h265.528a4.242 4.242 0 0 0 4.145 3.363 4.24 4.24 0 0 0 4.237-4.234 4.24 4.24 0 0 0-4.237-4.234 4.242 4.242 0 0 0-4.145 3.363H209.52L24.891 264.788h-146.856a4.242 4.242 0 0 0-4.144-3.363 4.24 4.24 0 0 0-4.237 4.234 4.24 4.24 0 0 0 4.237 4.234zm668.913 157.566a2.496 2.496 0 0 1-2.494-2.492 2.496 2.496 0 0 1 2.494-2.493 2.496 2.496 0 0 1 2.493 2.493 2.496 2.496 0 0 1-2.493 2.492zm-677.69-46.56a2.495 2.495 0 0 1-2.494-2.492 2.495 2.495 0 0 1 2.494-2.492 2.495 2.495 0 0 1 2.494 2.492 2.495 2.495 0 0 1-2.494 2.492zm677.69 39.834c-1.996 0-3.662 1.39-4.11 3.248h-57.682l-56.986 84.183h-135.45L158.128 377.79l-.255-.255h-288.615a4.241 4.241 0 0 0-4.144-3.363 4.24 4.24 0 0 0-4.236 4.234 4.24 4.24 0 0 0 4.236 4.234 4.242 4.242 0 0 0 4.145-3.364H157.15L287.599 509.65l.255.255H424.95l56.986-84.183h56.707a4.237 4.237 0 0 0 4.16 3.478 4.24 4.24 0 0 0 4.236-4.234 4.24 4.24 0 0 0-4.236-4.234zm-10.532 42.575a2.495 2.495 0 0 1-2.494-2.492 2.495 2.495 0 0 1 2.494-2.493 2.496 2.496 0 0 1 2.494 2.493 2.496 2.496 0 0 1-2.494 2.492zm-662.77-46.414a2.496 2.496 0 0 1-2.494-2.492 2.496 2.496 0 0 1 2.495-2.492 2.496 2.496 0 0 1 2.493 2.492 2.496 2.496 0 0 1-2.493 2.492zm662.77 39.687a4.242 4.242 0 0 0-4.152 3.396h-47.108l-56.986 84.183h-135.45L158.128 413.786l-.255-.256h-284.226a4.242 4.242 0 0 0-4.144-3.363 4.24 4.24 0 0 0-4.237 4.234 4.24 4.24 0 0 0 4.237 4.234 4.241 4.241 0 0 0 4.144-3.363H157.15l130.448 130.373.255.255H424.95l56.986-84.183h46.2a4.24 4.24 0 0 0 4.135 3.331 4.24 4.24 0 0 0 4.236-4.233 4.24 4.24 0 0 0-4.236-4.235zM-129.62 280.352a2.496 2.496 0 0 1 2.494 2.492 2.496 2.496 0 0 1-2.494 2.492 2.496 2.496 0 0 1-2.494-2.492 2.496 2.496 0 0 1 2.494-2.492zm622.65-127.726a2.495 2.495 0 0 1 2.494 2.493 2.495 2.495 0 0 1-2.494 2.492 2.496 2.496 0 0 1-2.494-2.492 2.496 2.496 0 0 1 2.494-2.493zm-622.65 134.452a4.242 4.242 0 0 0 4.144-3.363H25.436l184.63-127.726h278.82a4.242 4.242 0 0 0 4.144 3.364 4.24 4.24 0 0 0 4.236-4.234 4.24 4.24 0 0 0-4.236-4.234 4.242 4.242 0 0 0-4.145 3.363H209.521L24.891 281.973h-150.367a4.241 4.241 0 0 0-4.144-3.363 4.24 4.24 0 0 0-4.236 4.234 4.24 4.24 0 0 0 4.236 4.234zm668.036 158.413a2.495 2.495 0 0 1-2.494-2.493 2.495 2.495 0 0 1 2.494-2.492 2.495 2.495 0 0 1 2.493 2.492 2.495 2.495 0 0 1-2.493 2.493zm-671.547-46.595a2.496 2.496 0 0 1-2.493-2.493 2.496 2.496 0 0 1 2.493-2.492 2.495 2.495 0 0 1 2.494 2.492 2.495 2.495 0 0 1-2.494 2.493zm671.547 39.868c-1.983 0-3.639 1.374-4.099 3.214h-53.305l-56.986 84.183h-135.45L158.128 395.788l-.255-.255h-286.86a4.242 4.242 0 0 0-4.144-3.364 4.24 4.24 0 0 0-4.236 4.234 4.24 4.24 0 0 0 4.236 4.234 4.242 4.242 0 0 0 4.145-3.363H157.15l130.448 130.373.255.256H424.95l56.986-84.183h52.315a4.235 4.235 0 0 0 4.164 3.512 4.24 4.24 0 0 0 4.236-4.234 4.24 4.24 0 0 0-4.236-4.234zm-72.524 139.437a2.495 2.495 0 0 1-2.494-2.492 2.495 2.495 0 0 1 2.494-2.492 2.495 2.495 0 0 1 2.493 2.492 2.495 2.495 0 0 1-2.493 2.492zm-159.336 49.771a2.497 2.497 0 0 1-2.495-2.492 2.497 2.497 0 0 1 2.495-2.493 2.496 2.496 0 0 1 2.493 2.493 2.496 2.496 0 0 1-2.493 2.492zm159.336-56.497c-2.187 0-3.97 1.67-4.192 3.796H355.938l-46.857 46.83a4.195 4.195 0 0 0-2.525-.855 4.24 4.24 0 0 0-4.237 4.234 4.24 4.24 0 0 0 4.237 4.234 4.24 4.24 0 0 0 4.236-4.234c0-.754-.215-1.451-.561-2.065l46.429-46.402h105.222c.554 1.694 2.132 2.93 4.01 2.93a4.24 4.24 0 0 0 4.236-4.234 4.24 4.24 0 0 0-4.236-4.234zm-10.532 18.292a2.495 2.495 0 0 1-2.494-2.492 2.495 2.495 0 0 1 2.494-2.492 2.495 2.495 0 0 1 2.493 2.492 2.495 2.495 0 0 1-2.493 2.492zM306.556 639.54a2.497 2.497 0 0 1-2.495-2.493 2.497 2.497 0 0 1 2.495-2.493 2.496 2.496 0 0 1 2.493 2.493 2.496 2.496 0 0 1-2.493 2.493zM455.36 583.04c-2.187 0-3.97 1.67-4.192 3.797h-95.23l-46.857 46.83a4.195 4.195 0 0 0-2.525-.856 4.24 4.24 0 0 0-4.237 4.234 4.24 4.24 0 0 0 4.237 4.234 4.24 4.24 0 0 0 4.236-4.234c0-.754-.215-1.45-.561-2.065l46.429-46.402h94.69c.554 1.694 2.132 2.93 4.01 2.93 1.403 0 2.65-.686 3.42-1.739a4.21 4.21 0 0 0 .816-2.495 4.24 4.24 0 0 0-4.236-4.234zM137.632 476.434a2.496 2.496 0 0 1-2.494-2.492 2.496 2.496 0 0 1 2.494-2.492 2.495 2.495 0 0 1 2.493 2.492 2.495 2.495 0 0 1-2.493 2.492zm-156.361-1.466a2.496 2.496 0 0 1-2.494-2.492 2.496 2.496 0 0 1 2.494-2.492 2.495 2.495 0 0 1 2.493 2.492 2.495 2.495 0 0 1-2.493 2.492zm156.36-5.26a4.24 4.24 0 0 0-4.137 3.344l-148.075-1.436a4.243 4.243 0 0 0-4.148-3.374 4.24 4.24 0 0 0-4.236 4.234 4.24 4.24 0 0 0 4.236 4.234 4.241 4.241 0 0 0 4.14-3.352l148.07 1.435a4.242 4.242 0 0 0 4.15 3.383 4.24 4.24 0 0 0 4.237-4.234 4.24 4.24 0 0 0-4.236-4.234zm387.62 11.415a2.497 2.497 0 0 1-2.495-2.492 2.497 2.497 0 0 1 2.495-2.493 2.496 2.496 0 0 1 2.493 2.493 2.496 2.496 0 0 1-2.493 2.492zm-651.36-46.232a2.495 2.495 0 0 1-2.494-2.492 2.495 2.495 0 0 1 2.494-2.492 2.496 2.496 0 0 1 2.493 2.492 2.496 2.496 0 0 1-2.493 2.492zm651.36 39.505c-2.111 0-3.851 1.556-4.17 3.578h-40.069l-56.986 84.182h-135.45L158.128 431.783l-.255-.255h-279.838a4.242 4.242 0 0 0-4.144-3.364 4.24 4.24 0 0 0-4.237 4.235 4.24 4.24 0 0 0 4.237 4.233 4.241 4.241 0 0 0 4.144-3.362H157.15l130.448 130.373.255.255H424.95l56.986-84.183h39.235c.484 1.808 2.12 3.15 4.079 3.15a4.24 4.24 0 0 0 4.236-4.234 4.24 4.24 0 0 0-4.236-4.235zm-565.453-17.693a2.496 2.496 0 0 1-2.494-2.492 2.495 2.495 0 0 1 2.494-2.492 2.495 2.495 0 0 1 2.494 2.492 2.496 2.496 0 0 1-2.494 2.492zm192.469-3.283a2.495 2.495 0 0 1 2.493 2.492 2.495 2.495 0 0 1-2.493 2.492 2.495 2.495 0 0 1-2.494-2.492 2.495 2.495 0 0 1 2.494-2.492zm0 6.726a4.24 4.24 0 0 0 4.237-4.234 4.24 4.24 0 0 0-4.237-4.234c-1.945 0-3.57 1.323-4.067 3.111l-184.256-1.443a4.242 4.242 0 0 0-4.146-3.37 4.24 4.24 0 0 0-4.236 4.235 4.24 4.24 0 0 0 4.236 4.234 4.241 4.241 0 0 0 4.142-3.357l184.153 1.443c.303 2.04 2.05 3.615 4.174 3.615zm-183.347 5.69a2.496 2.496 0 0 1-2.493-2.492 2.496 2.496 0 0 1 2.493-2.493 2.495 2.495 0 0 1 2.494 2.493 2.495 2.495 0 0 1-2.494 2.492zm176.175-2.966a2.496 2.496 0 0 1 2.493 2.492 2.496 2.496 0 0 1-2.493 2.493 2.495 2.495 0 0 1-2.494-2.493 2.495 2.495 0 0 1 2.494-2.492zm0 6.727a4.24 4.24 0 0 0 4.236-4.235 4.24 4.24 0 0 0-4.236-4.233c-1.827 0-3.373 1.167-3.967 2.79l-168.061-1.44a4.242 4.242 0 0 0-4.147-3.37 4.24 4.24 0 0 0-4.236 4.235 4.24 4.24 0 0 0 4.236 4.233 4.241 4.241 0 0 0 4.143-3.356l167.825 1.437c.156 2.195 1.972 3.939 4.207 3.939zm8.954-20.575a2.495 2.495 0 0 1-2.493-2.492 2.495 2.495 0 0 1 2.493-2.492 2.496 2.496 0 0 1 2.494 2.492 2.496 2.496 0 0 1-2.494 2.492zm-203.18-1.16a2.496 2.496 0 0 1-2.493-2.493 2.496 2.496 0 0 1 2.493-2.493 2.496 2.496 0 0 1 2.494 2.493 2.496 2.496 0 0 1-2.494 2.492zm207.416-1.332a4.24 4.24 0 0 0-4.236-4.234 4.242 4.242 0 0 0-4.143 3.357l-194.98-1.439c-.507-1.771-2.124-3.08-4.057-3.08a4.24 4.24 0 0 0-4.237 4.235 4.24 4.24 0 0 0 4.237 4.234c2.135 0 3.887-1.591 4.177-3.646l194.857 1.438a4.242 4.242 0 0 0 4.146 3.369 4.24 4.24 0 0 0 4.236-4.234zm-233.49-296.888a2.496 2.496 0 0 1 2.493 2.492 2.496 2.496 0 0 1-2.493 2.492 2.495 2.495 0 0 1-2.494-2.492 2.495 2.495 0 0 1 2.494-2.492zM37.52 188.82a2.495 2.495 0 0 1 2.494 2.492 2.495 2.495 0 0 1-2.494 2.492 2.495 2.495 0 0 1-2.493-2.492 2.495 2.495 0 0 1 2.493-2.492zm-112.726-32.453a4.242 4.242 0 0 0 4.144-3.363H.81l33.43 35.663a4.185 4.185 0 0 0-.957 2.645 4.24 4.24 0 0 0 4.237 4.234 4.24 4.24 0 0 0 4.236-4.234 4.24 4.24 0 0 0-4.236-4.234c-.697 0-1.346.186-1.927.485l-34.027-36.3h-72.628a4.242 4.242 0 0 0-4.144-3.365 4.24 4.24 0 0 0-4.237 4.235 4.24 4.24 0 0 0 4.237 4.234zm350.861 270.536a2.497 2.497 0 0 1-2.494-2.492 2.497 2.497 0 0 1 2.494-2.493 2.496 2.496 0 0 1 2.493 2.493 2.496 2.496 0 0 1-2.493 2.492zm159.11-4.985a2.497 2.497 0 0 1 2.494 2.493 2.496 2.496 0 0 1-2.493 2.492 2.496 2.496 0 0 1-2.494-2.492 2.496 2.496 0 0 1 2.494-2.493zm0 6.727a4.24 4.24 0 0 0 4.237-4.234 4.24 4.24 0 0 0-4.236-4.234 4.242 4.242 0 0 0-4.145 3.363H279.8a4.242 4.242 0 0 0-4.144-3.363 4.24 4.24 0 0 0-4.236 4.234 4.24 4.24 0 0 0 4.236 4.234 4.241 4.241 0 0 0 4.144-3.363h150.822a4.242 4.242 0 0 0 4.145 3.363zm-555.61-182.664a2.496 2.496 0 0 1 2.494 2.492 2.496 2.496 0 0 1-2.494 2.493 2.496 2.496 0 0 1-2.493-2.493 2.496 2.496 0 0 1 2.493-2.492zm584.816-127.726a2.495 2.495 0 0 1 2.493 2.493 2.495 2.495 0 0 1-2.493 2.492 2.495 2.495 0 0 1-2.494-2.492 2.495 2.495 0 0 1 2.494-2.493zm-584.816 134.452a4.242 4.242 0 0 0 4.145-3.363H25.436l184.63-127.726h249.762a4.242 4.242 0 0 0 4.144 3.364 4.24 4.24 0 0 0 4.236-4.234 4.24 4.24 0 0 0-4.236-4.234 4.243 4.243 0 0 0-4.145 3.363H209.52L24.891 247.603h-141.59a4.242 4.242 0 0 0-4.145-3.363 4.24 4.24 0 0 0-4.236 4.234 4.24 4.24 0 0 0 4.236 4.234zM261.45 413.111a2.496 2.496 0 0 1-2.494-2.492 2.496 2.496 0 0 1 2.494-2.492 2.496 2.496 0 0 1 2.494 2.492 2.496 2.496 0 0 1-2.494 2.492zm182.553-4.984a2.495 2.495 0 0 1 2.493 2.492 2.495 2.495 0 0 1-2.493 2.492 2.495 2.495 0 0 1-2.494-2.492 2.495 2.495 0 0 1 2.494-2.492zm0 6.727a4.24 4.24 0 0 0 4.237-4.235 4.24 4.24 0 0 0-4.237-4.234 4.242 4.242 0 0 0-4.144 3.364H265.595a4.242 4.242 0 0 0-4.145-3.364 4.24 4.24 0 0 0-4.236 4.234 4.24 4.24 0 0 0 4.236 4.235 4.242 4.242 0 0 0 4.145-3.364h174.264a4.242 4.242 0 0 0 4.144 3.364zm-15.98 23.35a2.495 2.495 0 0 1-2.493 2.492 2.495 2.495 0 0 1-2.494-2.492 2.495 2.495 0 0 1 2.494-2.492 2.495 2.495 0 0 1 2.494 2.492zm-138.162 2.492a2.495 2.495 0 0 1-2.493-2.492 2.495 2.495 0 0 1 2.493-2.492 2.496 2.496 0 0 1 2.495 2.492 2.496 2.496 0 0 1-2.495 2.492zm131.525-3.362h-127.38a4.242 4.242 0 0 0-4.145-3.363 4.24 4.24 0 0 0-4.236 4.233 4.24 4.24 0 0 0 4.236 4.235 4.242 4.242 0 0 0 4.145-3.364h127.38a4.242 4.242 0 0 0 4.144 3.364 4.24 4.24 0 0 0 4.237-4.235 4.24 4.24 0 0 0-4.237-4.233 4.241 4.241 0 0 0-4.144 3.363zM-50.631 118.922a2.496 2.496 0 0 1 2.494 2.493 2.496 2.496 0 0 1-2.494 2.492 2.496 2.496 0 0 1-2.493-2.492 2.496 2.496 0 0 1 2.493-2.493zm106.19 58.167a2.496 2.496 0 0 1 2.493 2.492 2.495 2.495 0 0 1-2.493 2.493 2.495 2.495 0 0 1-2.494-2.493 2.496 2.496 0 0 1 2.494-2.492zm-106.19-51.44a4.241 4.241 0 0 0 4.144-3.364h47.3l51.531 54.57a4.194 4.194 0 0 0-1.022 2.726 4.24 4.24 0 0 0 4.237 4.235 4.24 4.24 0 0 0 4.237-4.235 4.24 4.24 0 0 0-4.237-4.233c-.66 0-1.275.164-1.833.433L1.564 120.543h-48.05a4.242 4.242 0 0 0-4.145-3.363 4.24 4.24 0 0 0-4.237 4.235 4.24 4.24 0 0 0 4.237 4.233zm-13.165 8.633a2.496 2.496 0 0 1 2.494 2.492 2.497 2.497 0 0 1-2.494 2.493 2.496 2.496 0 0 1-2.493-2.493 2.496 2.496 0 0 1 2.493-2.492zM46.54 182.955a2.496 2.496 0 0 1 2.494 2.493 2.496 2.496 0 0 1-2.494 2.492 2.496 2.496 0 0 1-2.494-2.492 2.496 2.496 0 0 1 2.494-2.493zm-110.336-41.947a4.242 4.242 0 0 0 4.144-3.363H.812l42.48 45.118a4.193 4.193 0 0 0-.988 2.685 4.24 4.24 0 0 0 4.236 4.233 4.24 4.24 0 0 0 4.236-4.233 4.24 4.24 0 0 0-4.236-4.235c-.679 0-1.312.175-1.88.46l-43.095-45.77h-61.217a4.241 4.241 0 0 0-4.144-3.363 4.24 4.24 0 0 0-4.236 4.234 4.24 4.24 0 0 0 4.236 4.234zm-51.781 87.79a2.496 2.496 0 0 1 2.493 2.491 2.496 2.496 0 0 1-2.493 2.492 2.495 2.495 0 0 1-2.494-2.492 2.495 2.495 0 0 1 2.494-2.492zm567.681-127.726a2.495 2.495 0 0 1 2.494 2.492 2.495 2.495 0 0 1-2.494 2.492 2.496 2.496 0 0 1-2.494-2.492 2.496 2.496 0 0 1 2.494-2.492zm-567.681 134.452a4.242 4.242 0 0 0 4.144-3.364h136.87l184.628-127.725H447.96a4.242 4.242 0 0 0 4.144 3.363 4.24 4.24 0 0 0 4.236-4.234 4.24 4.24 0 0 0-4.236-4.234 4.242 4.242 0 0 0-4.144 3.363H209.52L24.891 230.42h-136.324a4.242 4.242 0 0 0-4.144-3.364 4.24 4.24 0 0 0-4.237 4.234 4.24 4.24 0 0 0 4.237 4.235zm664.525 155.331a2.497 2.497 0 0 1-2.495-2.493 2.497 2.497 0 0 1 2.495-2.492 2.496 2.496 0 0 1 2.493 2.492 2.496 2.496 0 0 1-2.493 2.493zm-684.712-45.952a2.495 2.495 0 0 1-2.493-2.493 2.495 2.495 0 0 1 2.493-2.492 2.495 2.495 0 0 1 2.494 2.492 2.495 2.495 0 0 1-2.494 2.493zm684.712 39.226c-2.208 0-4.004 1.7-4.199 3.856h-63.737l-56.986 84.183h-135.45L158.128 341.795l-.255-.255H-131.62a4.242 4.242 0 0 0-4.144-3.364A4.24 4.24 0 0 0-140 342.41a4.24 4.24 0 0 0 4.236 4.235 4.242 4.242 0 0 0 4.144-3.364h288.77L287.6 473.654l.255.255H424.95l56.986-84.182h63.02c.57 1.663 2.135 2.87 3.99 2.87a4.24 4.24 0 0 0 4.237-4.235 4.24 4.24 0 0 0-4.236-4.233zM-84.86 165.002a2.495 2.495 0 0 1 2.494 2.492 2.495 2.495 0 0 1-2.494 2.492 2.495 2.495 0 0 1-2.493-2.492 2.495 2.495 0 0 1 2.493-2.492zm113.362 29.685a2.496 2.496 0 0 1 2.494 2.492 2.496 2.496 0 0 1-2.494 2.492 2.496 2.496 0 0 1-2.494-2.492 2.496 2.496 0 0 1 2.494-2.492zm-113.362-22.96a4.24 4.24 0 0 0 4.144-3.362H.81l24.382 26.205a4.189 4.189 0 0 0-.925 2.61 4.24 4.24 0 0 0 4.236 4.233 4.24 4.24 0 0 0 4.237-4.234 4.24 4.24 0 0 0-4.237-4.234 4.18 4.18 0 0 0-1.97.51L1.568 166.622h-82.284a4.24 4.24 0 0 0-4.144-3.364 4.24 4.24 0 0 0-4.236 4.235 4.24 4.24 0 0 0 4.236 4.233zm631.174 237.72a2.496 2.496 0 0 1-2.494-2.492 2.497 2.497 0 0 1 2.494-2.493 2.497 2.497 0 0 1 2.494 2.493 2.497 2.497 0 0 1-2.494 2.492zM-135.764 362.9a2.495 2.495 0 0 1-2.493-2.492 2.495 2.495 0 0 1 2.493-2.492 2.495 2.495 0 0 1 2.494 2.492 2.495 2.495 0 0 1-2.494 2.492zm682.078 39.82c-2 0-3.67 1.397-4.113 3.263h-61.189l-56.986 84.183h-135.45L158.128 359.792l-.255-.255H-131.62a4.242 4.242 0 0 0-4.144-3.363 4.24 4.24 0 0 0-4.236 4.234 4.24 4.24 0 0 0 4.236 4.234 4.242 4.242 0 0 0 4.144-3.363h288.77L287.6 491.652l.255.255H424.95l56.986-84.182h60.219a4.237 4.237 0 0 0 4.158 3.464 4.24 4.24 0 0 0 4.237-4.234 4.24 4.24 0 0 0-4.237-4.234zm-654.87-191.349a2.495 2.495 0 0 1 2.493 2.492 2.495 2.495 0 0 1-2.493 2.492 2.496 2.496 0 0 1-2.494-2.492 2.496 2.496 0 0 1 2.494-2.492zM430.496 83.887a2.496 2.496 0 0 1 2.493 2.492 2.496 2.496 0 0 1-2.493 2.493 2.496 2.496 0 0 1-2.494-2.493 2.496 2.496 0 0 1 2.494-2.492zm-539.052 134.21c1.948 0 3.576-1.328 4.07-3.122H25.435L210.066 87.25h216.286a4.242 4.242 0 0 0 4.144 3.363 4.24 4.24 0 0 0 4.236-4.234 4.24 4.24 0 0 0-4.236-4.234 4.241 4.241 0 0 0-4.144 3.363h-216.83L24.891 213.233h-129.276c-.307-2.034-2.052-3.603-4.172-3.603a4.24 4.24 0 0 0-4.236 4.233 4.24 4.24 0 0 0 4.236 4.235zM551.58 373.135a2.496 2.496 0 0 1-2.493-2.492 2.496 2.496 0 0 1 2.493-2.493 2.496 2.496 0 0 1 2.494 2.493 2.496 2.496 0 0 1-2.494 2.492zm-686.466-46.23a2.495 2.495 0 0 1-2.494-2.491 2.495 2.495 0 0 1 2.494-2.492 2.495 2.495 0 0 1 2.494 2.492 2.495 2.495 0 0 1-2.494 2.492zm686.466 39.504c-2.112 0-3.852 1.557-4.17 3.58h-66.398l-56.986 84.182h-135.45L158.128 323.797l-.255-.255H-130.74a4.242 4.242 0 0 0-4.145-3.363 4.24 4.24 0 0 0-4.236 4.234 4.24 4.24 0 0 0 4.236 4.234 4.242 4.242 0 0 0 4.145-3.364H157.15l130.448 130.374.255.255H424.95l56.986-84.182h65.567c.483 1.805 2.119 3.146 4.076 3.146a4.24 4.24 0 0 0 4.236-4.234 4.24 4.24 0 0 0-4.236-4.234zM-93.636 180.36a2.496 2.496 0 0 1 2.493 2.493 2.496 2.496 0 0 1-2.493 2.492 2.496 2.496 0 0 1-2.494-2.492 2.497 2.497 0 0 1 2.494-2.493zm111.043 21.308l.86-.786c.361-.204.773-.33 1.217-.33a2.495 2.495 0 0 1 2.493 2.492 2.495 2.495 0 0 1-2.493 2.492 2.495 2.495 0 0 1-2.494-2.492c0-.509.154-.98.417-1.376zm-111.043-14.582a4.242 4.242 0 0 0 4.144-3.362H.805l15.342 16.742a4.193 4.193 0 0 0-.9 2.578 4.24 4.24 0 0 0 4.237 4.234 4.24 4.24 0 0 0 4.236-4.234 4.24 4.24 0 0 0-4.236-4.234c-.73 0-1.408.202-2.008.529L1.572 181.982h-91.064a4.242 4.242 0 0 0-4.144-3.363 4.24 4.24 0 0 0-4.236 4.235 4.24 4.24 0 0 0 4.236 4.233zM8.9 631.292a2.495 2.495 0 0 1-2.493-2.492 2.496 2.496 0 0 1 2.493-2.492 2.496 2.496 0 0 1 2.494 2.492 2.495 2.495 0 0 1-2.494 2.492zm195.53-136.24a2.495 2.495 0 0 1 2.494 2.493 2.495 2.495 0 0 1-2.493 2.492 2.495 2.495 0 0 1-2.494-2.492 2.495 2.495 0 0 1 2.494-2.492zM27.03 611.158h83.306L202.68 501.39a4.21 4.21 0 0 0 1.752.39 4.24 4.24 0 0 0 4.236-4.235 4.24 4.24 0 0 0-4.236-4.234 4.24 4.24 0 0 0-4.237 4.234c0 1.08.418 2.054 1.085 2.802l-91.756 109.068H26.32l-14.745 16.128a4.197 4.197 0 0 0-2.674-.977 4.24 4.24 0 0 0-4.236 4.234 4.24 4.24 0 0 0 4.236 4.234 4.24 4.24 0 0 0 4.236-4.234c0-.694-.184-1.34-.481-1.919l14.374-15.724zm170.52 58.23a2.496 2.496 0 0 1-2.723-2.238 2.495 2.495 0 0 1 2.239-2.722 2.496 2.496 0 0 1 2.724 2.238 2.496 2.496 0 0 1-2.24 2.723zm-58.613 18.788a2.496 2.496 0 0 1-2.724-2.238 2.495 2.495 0 0 1 2.24-2.723 2.477 2.477 0 0 1 1.46.312l.147.125.016-.017a2.477 2.477 0 0 1 1.101 1.819 2.495 2.495 0 0 1-2.24 2.722zm57.96-25.482c-1.988.194-3.513 1.742-3.775 3.639l-39.423-.884-14.132 16.124a4.177 4.177 0 0 0-1.283-.091 4.239 4.239 0 0 0-3.805 4.624 4.24 4.24 0 0 0 4.627 3.804 4.239 4.239 0 0 0 3.806-4.625 4.21 4.21 0 0 0-1.684-2.964l13.337-15.207 38.677.952a4.237 4.237 0 0 0 4.478 3.056 4.24 4.24 0 0 0 3.804-4.625 4.24 4.24 0 0 0-4.627-3.803zm.653-5.238a2.495 2.495 0 0 1-2.723-2.238 2.496 2.496 0 0 1 2.239-2.723 2.496 2.496 0 0 1 2.724 2.239 2.495 2.495 0 0 1-2.24 2.722zm-68.646 29.029a2.503 2.503 0 0 1-2.14-1.759 2.498 2.498 0 0 1 2.637-3.204 2.5 2.5 0 0 1 2.14 1.757 2.498 2.498 0 0 1-2.637 3.206zm67.993-35.723c-1.989.193-3.514 1.743-3.775 3.64l-40.589-.885-22.213 26.422a4.298 4.298 0 0 0-2.71.113 4.178 4.178 0 0 0-2.634 3.202 4.25 4.25 0 0 0 5.718 4.7 4.178 4.178 0 0 0 2.635-3.201c.265-1.618-.363-3.062-1.44-3.975l21.513-25.596 39.84.953a4.236 4.236 0 0 0 4.478 3.055 4.238 4.238 0 0 0 3.804-4.625 4.24 4.24 0 0 0-4.627-3.803zm54.64 41.217a2.495 2.495 0 0 1-2.493-2.492 2.495 2.495 0 0 1 2.494-2.492 2.496 2.496 0 0 1 2.494 2.492 2.496 2.496 0 0 1-2.494 2.492zm-57.269-147.255a2.498 2.498 0 0 1-3.519.232 2.494 2.494 0 0 1 3.287-3.749 2.495 2.495 0 0 1 .232 3.517zm58.142 140.62v-86.831l-56.574-53.002c1.233-1.746.992-4.175-.652-5.614a4.212 4.212 0 0 0-3.07-1.04 4.213 4.213 0 0 0-2.908 1.435 4.237 4.237 0 0 0 .395 5.975 4.223 4.223 0 0 0 2.789 1.047c.756 0 1.5-.222 2.162-.617l56.115 52.57v86.077a4.24 4.24 0 0 0-3.365 4.143 4.24 4.24 0 0 0 4.236 4.234 4.24 4.24 0 0 0 4.237-4.234 4.24 4.24 0 0 0-3.365-4.143zm14.329 4.88a2.496 2.496 0 0 1-2.494-2.491 2.496 2.496 0 0 1 2.494-2.492 2.496 2.496 0 0 1 2.494 2.492 2.496 2.496 0 0 1-2.494 2.492zM201.04 536.699a2.498 2.498 0 0 1-3.519.233 2.473 2.473 0 0 1-.845-1.71 2.474 2.474 0 0 1 .613-1.807 2.477 2.477 0 0 1 1.88-.85 2.494 2.494 0 0 1 1.872 4.134zm66.57 146.891v-85.077l-64.98-61.059c1.207-1.744.96-4.151-.674-5.582a4.215 4.215 0 0 0-3.07-1.04 4.212 4.212 0 0 0-2.908 1.435 4.208 4.208 0 0 0-1.04 3.07 4.203 4.203 0 0 0 1.434 2.905 4.22 4.22 0 0 0 2.79 1.047c.769 0 1.526-.229 2.198-.638l64.508 60.616v84.323a4.24 4.24 0 0 0-3.365 4.143 4.24 4.24 0 0 0 4.236 4.233 4.24 4.24 0 0 0 4.237-4.233 4.241 4.241 0 0 0-3.365-4.143zm-93.657-114.792a2.498 2.498 0 0 1-3.52.232c-.5-.439-.8-1.046-.844-1.71a2.475 2.475 0 0 1 .613-1.808 2.479 2.479 0 0 1 1.88-.85 2.495 2.495 0 0 1 1.872 4.135zm.916-4.828a4.205 4.205 0 0 0-3.071-1.04 4.209 4.209 0 0 0-2.907 1.435 4.205 4.205 0 0 0-1.041 3.069 4.21 4.21 0 0 0 1.436 2.906 4.219 4.219 0 0 0 2.789 1.047c.713 0 1.416-.2 2.052-.553l30.937 28.438v90.36h1.744v-91.124l-31.358-28.824c1.314-1.752 1.094-4.247-.58-5.714zm-155.482 74.9a2.495 2.495 0 0 1-2.494-2.493 2.495 2.495 0 0 1 2.494-2.492 2.496 2.496 0 0 1 2.493 2.492 2.496 2.496 0 0 1-2.493 2.493zM212.16 503.724a2.496 2.496 0 0 1 2.494 2.492 2.496 2.496 0 0 1-2.494 2.493 2.497 2.497 0 0 1-2.493-2.493 2.496 2.496 0 0 1 2.493-2.492zm-101.824 125.43l100.022-119.121c.549.26 1.156.417 1.802.417a4.24 4.24 0 0 0 4.237-4.234 4.24 4.24 0 0 0-4.237-4.234 4.24 4.24 0 0 0-4.236 4.234c0 1.058.404 2.015 1.048 2.757l-99.448 118.44H26.32l-4.824 5.314a4.183 4.183 0 0 0-2.11-.585 4.24 4.24 0 0 0-4.236 4.234 4.24 4.24 0 0 0 4.237 4.235 4.24 4.24 0 0 0 4.236-4.235c0-.948-.325-1.815-.854-2.521l4.26-4.7h83.307zm87.214 16.37a2.496 2.496 0 0 1-2.723-2.239 2.495 2.495 0 0 1 2.239-2.722 2.496 2.496 0 0 1 2.724 2.238 2.496 2.496 0 0 1-2.24 2.723zm-77.44 38.466a2.496 2.496 0 0 1-2.723-2.239 2.496 2.496 0 0 1 2.24-2.722 2.497 2.497 0 0 1 2.724 2.238 2.495 2.495 0 0 1-2.24 2.723zm76.787-45.16c-1.989.193-3.515 1.742-3.776 3.64l-41.753-.886-30.314 35.868a4.21 4.21 0 0 0-1.596-.157 4.24 4.24 0 0 0-3.806 4.626 4.24 4.24 0 0 0 4.628 3.802 4.238 4.238 0 0 0 3.805-4.624 4.21 4.21 0 0 0-1.467-2.799l29.62-35.05 41.004.953a4.238 4.238 0 0 0 4.478 3.054 4.24 4.24 0 0 0 3.804-4.625 4.24 4.24 0 0 0-4.627-3.803zm.653-17.17a2.496 2.496 0 0 1-2.723-2.24 2.494 2.494 0 0 1 4.963-.483 2.495 2.495 0 0 1-2.24 2.722zm-95.787 57.151a2.496 2.496 0 0 1-2.724-2.238 2.495 2.495 0 0 1 2.24-2.723 2.496 2.496 0 0 1 2.724 2.239 2.495 2.495 0 0 1-2.24 2.722zm95.134-63.846a4.235 4.235 0 0 0-3.776 3.642l-44.08-.887-46.033 54.665a4.182 4.182 0 0 0-1.898-.268 4.238 4.238 0 0 0-3.806 4.624 4.24 4.24 0 0 0 4.628 3.804 4.24 4.24 0 0 0 3.805-4.626 4.193 4.193 0 0 0-1.252-2.584l45.426-53.95 43.332.956a4.237 4.237 0 0 0 4.477 3.052 4.24 4.24 0 0 0 3.804-4.625 4.24 4.24 0 0 0-4.627-3.803zm9.039 80.521a2.496 2.496 0 0 1-2.494-2.492 2.496 2.496 0 0 1 2.494-2.492 2.496 2.496 0 0 1 2.494 2.492 2.496 2.496 0 0 1-2.494 2.492zm0-5.848c-2.336 0-4.236 1.022-4.236 3.356a4.24 4.24 0 0 0 4.236 4.235 4.24 4.24 0 0 0 4.236-4.235c0-2.334-1.9-3.356-4.236-3.356zM-35.711 103.562a2.495 2.495 0 0 1 2.494 2.493 2.495 2.495 0 0 1-2.494 2.492 2.495 2.495 0 0 1-2.493-2.492 2.495 2.495 0 0 1 2.493-2.493zm100.288 67.662a2.496 2.496 0 0 1 2.495 2.492 2.496 2.496 0 0 1-2.495 2.492 2.496 2.496 0 0 1-2.493-2.492 2.496 2.496 0 0 1 2.493-2.492zM-35.71 110.288a4.242 4.242 0 0 0 4.145-3.363H.814l60.584 64.023a4.196 4.196 0 0 0-1.057 2.768 4.24 4.24 0 0 0 4.236 4.233 4.24 4.24 0 0 0 4.237-4.233 4.24 4.24 0 0 0-4.237-4.234c-.64 0-1.24.152-1.783.407l-61.23-64.705h-33.13a4.243 4.243 0 0 0-4.145-3.364 4.24 4.24 0 0 0-4.236 4.235 4.24 4.24 0 0 0 4.236 4.233zm272.048 583.444a2.496 2.496 0 0 1-2.493-2.492 2.496 2.496 0 0 1 2.493-2.492 2.496 2.496 0 0 1 2.495 2.492 2.496 2.496 0 0 1-2.495 2.492zm-48.84-140.985a2.498 2.498 0 0 1-3.52.233 2.495 2.495 0 0 1 1.48-4.362 2.476 2.476 0 0 1 1.808.612 2.495 2.495 0 0 1 .231 3.517zm49.712 134.35v-88.586l-48.168-44.943c1.26-1.749 1.026-4.2-.629-5.647a4.209 4.209 0 0 0-3.07-1.04 4.207 4.207 0 0 0-2.907 1.434 4.237 4.237 0 0 0 .394 5.975 4.22 4.22 0 0 0 2.79 1.047c.741 0 1.47-.215 2.126-.596l47.72 44.526v87.83a4.24 4.24 0 0 0-3.364 4.143 4.24 4.24 0 0 0 4.236 4.234 4.24 4.24 0 0 0 4.237-4.234 4.242 4.242 0 0 0-3.365-4.142zm-16.072 7.512a2.496 2.496 0 0 1-2.494-2.492 2.496 2.496 0 0 1 2.494-2.492 2.496 2.496 0 0 1 2.494 2.492 2.496 2.496 0 0 1-2.494 2.492zm-40.412-133.837a2.498 2.498 0 0 1-3.52.232 2.475 2.475 0 0 1-.844-1.71 2.474 2.474 0 0 1 .613-1.807 2.477 2.477 0 0 1 1.88-.85c.603 0 1.18.216 1.638.617a2.495 2.495 0 0 1 .233 3.518zm41.283 127.204v-89.467l-39.762-36.884c1.286-1.75 1.06-4.223-.605-5.68a4.212 4.212 0 0 0-3.071-1.04 4.213 4.213 0 0 0-2.907 1.435 4.204 4.204 0 0 0-1.041 3.068 4.2 4.2 0 0 0 1.436 2.906 4.219 4.219 0 0 0 2.789 1.047c.728 0 1.444-.207 2.09-.574l39.328 36.482v88.707a4.24 4.24 0 0 0-3.365 4.141 4.24 4.24 0 0 0 4.237 4.235 4.24 4.24 0 0 0 4.236-4.235 4.24 4.24 0 0 0-3.365-4.141zm-24.458-54.384a2.496 2.496 0 0 1-2.723-2.24 2.495 2.495 0 0 1 2.239-2.722 2.495 2.495 0 0 1 2.724 2.24 2.495 2.495 0 0 1-2.24 2.722zm-87.314 47.711a2.496 2.496 0 0 1-2.724-2.238 2.495 2.495 0 0 1 2.24-2.723 2.496 2.496 0 0 1 2.724 2.239 2.495 2.495 0 0 1-2.24 2.722zm86.661-54.406c-1.989.193-3.515 1.744-3.776 3.641l-42.917-.887-38.67 45.247a4.187 4.187 0 0 0-1.951-.29 4.238 4.238 0 0 0-3.805 4.625 4.24 4.24 0 0 0 4.627 3.804 4.239 4.239 0 0 0 3.806-4.625 4.199 4.199 0 0 0-1.213-2.545l38.077-44.55 42.168.955a4.236 4.236 0 0 0 4.477 3.053 4.238 4.238 0 0 0 3.804-4.625 4.24 4.24 0 0 0-4.627-3.803zM-118.21 460.682a2.496 2.496 0 0 1-2.494-2.492 2.496 2.496 0 0 1 2.494-2.493 2.495 2.495 0 0 1 2.493 2.493 2.495 2.495 0 0 1-2.493 2.492zm238.674 31.426a2.495 2.495 0 0 1 2.494 2.492 2.495 2.495 0 0 1-2.494 2.492 2.495 2.495 0 0 1-2.493-2.492 2.495 2.495 0 0 1 2.493-2.492zm-234.53-33.048h47.862l46.727 36.41H116.32a4.242 4.242 0 0 0 4.144 3.364 4.24 4.24 0 0 0 4.236-4.234 4.24 4.24 0 0 0-4.236-4.234 4.242 4.242 0 0 0-4.144 3.363H-18.878l-46.727-36.41h-48.461a4.242 4.242 0 0 0-4.144-3.364 4.24 4.24 0 0 0-4.237 4.235 4.24 4.24 0 0 0 4.237 4.234 4.242 4.242 0 0 0 4.144-3.364zM431.663 612.9a2.495 2.495 0 0 1-2.494-2.493 2.496 2.496 0 0 1 2.494-2.492 2.496 2.496 0 0 1 2.493 2.492 2.495 2.495 0 0 1-2.493 2.492zm-125.107 49.77a2.496 2.496 0 0 1-2.495-2.491 2.496 2.496 0 0 1 2.495-2.492 2.495 2.495 0 0 1 2.493 2.492 2.495 2.495 0 0 1-2.493 2.492zm125.107-56.496c-2.186 0-3.97 1.67-4.192 3.796h-71.533L309.08 656.8a4.195 4.195 0 0 0-2.525-.856 4.24 4.24 0 0 0-4.237 4.235 4.24 4.24 0 0 0 4.237 4.233 4.24 4.24 0 0 0 4.236-4.233c0-.753-.215-1.451-.561-2.066l46.429-46.402h70.993c.555 1.695 2.132 2.93 4.01 2.93a4.24 4.24 0 0 0 4.237-4.234 4.24 4.24 0 0 0-4.237-4.233zM-65.898 496.81a2.496 2.496 0 0 1-2.494-2.492 2.497 2.497 0 0 1 2.494-2.492 2.496 2.496 0 0 1 2.493 2.492 2.495 2.495 0 0 1-2.493 2.492zm-38.27 0a2.496 2.496 0 0 1-2.494-2.492 2.497 2.497 0 0 1 2.494-2.492 2.496 2.496 0 0 1 2.494 2.492 2.496 2.496 0 0 1-2.494 2.492zm38.27-6.726a4.242 4.242 0 0 0-4.145 3.363h-29.98a4.241 4.241 0 0 0-4.145-3.363 4.24 4.24 0 0 0-4.236 4.234 4.24 4.24 0 0 0 4.236 4.234 4.242 4.242 0 0 0 4.144-3.363h29.981a4.242 4.242 0 0 0 4.145 3.363 4.24 4.24 0 0 0 4.236-4.234 4.24 4.24 0 0 0-4.236-4.234zM197.55 609.687a2.495 2.495 0 0 1-2.723-2.238 2.495 2.495 0 0 1 2.239-2.723 2.496 2.496 0 0 1 2.724 2.24 2.494 2.494 0 0 1-2.24 2.72zM92.62 675.239A2.495 2.495 0 0 1 89.898 673a2.495 2.495 0 0 1 2.24-2.722 2.496 2.496 0 0 1 2.723 2.238 2.495 2.495 0 0 1-2.24 2.723zm104.276-72.246a4.237 4.237 0 0 0-3.785 3.683l-45.236-.889-54.056 63.005a4.196 4.196 0 0 0-1.852-.248 4.24 4.24 0 0 0-3.805 4.626 4.241 4.241 0 0 0 4.628 3.802 4.238 4.238 0 0 0 3.805-4.624 4.192 4.192 0 0 0-1.285-2.617l53.435-62.278 44.505.956a4.24 4.24 0 0 0 4.469 3.012 4.24 4.24 0 0 0 3.804-4.625 4.24 4.24 0 0 0-4.627-3.803zm-310.72-129.825a2.495 2.495 0 0 1-2.493-2.492 2.495 2.495 0 0 1 2.494-2.492 2.496 2.496 0 0 1 2.494 2.492 2.496 2.496 0 0 1-2.494 2.492zm221.554 31.425a2.496 2.496 0 0 1 2.493 2.493 2.496 2.496 0 0 1-2.493 2.493 2.496 2.496 0 0 1-2.494-2.493 2.496 2.496 0 0 1 2.494-2.493zm-217.41-33.046h43.475l46.727 36.41h123.064a4.241 4.241 0 0 0 4.144 3.363 4.24 4.24 0 0 0 4.236-4.234 4.24 4.24 0 0 0-4.236-4.234 4.243 4.243 0 0 0-4.145 3.363H-18.878l-46.727-36.41h-44.073a4.242 4.242 0 0 0-4.144-3.363 4.24 4.24 0 0 0-4.237 4.234 4.24 4.24 0 0 0 4.237 4.234 4.241 4.241 0 0 0 4.144-3.363zm.245 13.932a2.496 2.496 0 0 1-2.494-2.492 2.496 2.496 0 0 1 2.494-2.493 2.496 2.496 0 0 1 2.494 2.493 2.496 2.496 0 0 1-2.494 2.492zm72.598 18.97a2.495 2.495 0 0 1 2.492 2.492 2.495 2.495 0 0 1-2.492 2.492 2.496 2.496 0 0 1-2.495-2.492 2.496 2.496 0 0 1 2.495-2.492zm-68.454-20.592h39.067l25.551 21.311a4.194 4.194 0 0 0-.401 1.773 4.24 4.24 0 0 0 4.237 4.234 4.24 4.24 0 0 0 4.236-4.234 4.24 4.24 0 0 0-4.236-4.234c-1.07 0-2.039.412-2.785 1.069l-25.965-21.66h-39.703a4.242 4.242 0 0 0-4.145-3.364 4.24 4.24 0 0 0-4.236 4.235 4.24 4.24 0 0 0 4.236 4.233 4.24 4.24 0 0 0 4.144-3.363zm549.24 117.476a2.495 2.495 0 0 1-2.494-2.492 2.495 2.495 0 0 1 2.494-2.492 2.495 2.495 0 0 1 2.494 2.492 2.495 2.495 0 0 1-2.494 2.492zm-137.394 49.772a2.497 2.497 0 0 1-2.495-2.492 2.497 2.497 0 0 1 2.495-2.493 2.496 2.496 0 0 1 2.493 2.493 2.496 2.496 0 0 1-2.493 2.492zm137.394-56.498c-2.186 0-3.97 1.67-4.192 3.797h-83.82l-46.857 46.83a4.195 4.195 0 0 0-2.525-.856 4.24 4.24 0 0 0-4.237 4.235 4.24 4.24 0 0 0 4.237 4.233 4.24 4.24 0 0 0 4.236-4.233c0-.754-.215-1.452-.561-2.066l46.429-46.402h83.28c.555 1.694 2.132 2.93 4.01 2.93a4.24 4.24 0 0 0 4.237-4.234 4.24 4.24 0 0 0-4.237-4.234zm-162.01 92.986a2.496 2.496 0 0 1-2.494-2.493 2.496 2.496 0 0 1 2.494-2.493 2.497 2.497 0 0 1 2.494 2.493 2.497 2.497 0 0 1-2.494 2.493zm-74.128-158.919a2.497 2.497 0 0 1-3.52.232c-.5-.438-.8-1.046-.844-1.71a2.472 2.472 0 0 1 .612-1.806 2.477 2.477 0 0 1 1.88-.851 2.494 2.494 0 0 1 1.872 4.135zm75 152.284v-82.445l-73.386-69.117c1.18-1.74.925-4.128-.698-5.549a4.21 4.21 0 0 0-3.07-1.04 4.207 4.207 0 0 0-2.908 1.434 4.2 4.2 0 0 0-1.04 3.07 4.204 4.204 0 0 0 1.434 2.905 4.219 4.219 0 0 0 2.79 1.048c.782 0 1.554-.235 2.234-.659l72.9 68.66v81.693a4.24 4.24 0 0 0-3.364 4.142 4.24 4.24 0 0 0 4.236 4.234 4.24 4.24 0 0 0 4.236-4.234 4.241 4.241 0 0 0-3.364-4.142zm-293.864-63.851a2.495 2.495 0 0 1-2.493-2.493 2.495 2.495 0 0 1 2.493-2.492 2.495 2.495 0 0 1 2.494 2.492 2.495 2.495 0 0 1-2.494 2.493zM188.973 477.71a2.496 2.496 0 0 1 2.494 2.493 2.496 2.496 0 0 1-2.494 2.492 2.496 2.496 0 0 1-2.493-2.492 2.497 2.497 0 0 1 2.493-2.493zM27.03 575.162h83.305l76.99-91.06a4.24 4.24 0 0 0 5.885-3.9 4.24 4.24 0 0 0-4.237-4.234 4.24 4.24 0 0 0-4.236 4.235c0 1.12.446 2.134 1.16 2.892l-76.371 90.325H26.32l-35.497 37.417a4.191 4.191 0 0 0-1.875-.457 4.24 4.24 0 0 0-4.236 4.234 4.24 4.24 0 0 0 4.236 4.234 4.24 4.24 0 0 0 4.236-4.234 4.192 4.192 0 0 0-1.02-2.724l34.866-36.728zm270.11 108.044a2.495 2.495 0 0 1-2.493-2.492 2.495 2.495 0 0 1 2.493-2.492 2.496 2.496 0 0 1 2.495 2.492 2.496 2.496 0 0 1-2.495 2.492zM214.584 520.65a2.497 2.497 0 0 1-3.52.233c-.5-.44-.8-1.046-.844-1.71a2.475 2.475 0 0 1 .612-1.807 2.477 2.477 0 0 1 1.88-.85 2.494 2.494 0 0 1 1.872 4.134zm83.428 155.924v-78.06L216.22 521.34c1.156-1.74.892-4.105-.72-5.518a4.209 4.209 0 0 0-3.072-1.04 4.209 4.209 0 0 0-2.907 1.435 4.205 4.205 0 0 0-1.04 3.069 4.204 4.204 0 0 0 1.435 2.905 4.22 4.22 0 0 0 2.79 1.049c.795 0 1.58-.242 2.269-.68l81.294 76.705v77.308a4.24 4.24 0 0 0-3.365 4.141 4.24 4.24 0 0 0 4.236 4.235 4.24 4.24 0 0 0 4.237-4.235 4.24 4.24 0 0 0-3.365-4.141zm118.73-52.107a2.495 2.495 0 0 1-2.493-2.493 2.496 2.496 0 0 1 2.494-2.492 2.496 2.496 0 0 1 2.493 2.492 2.495 2.495 0 0 1-2.493 2.493zm-110.186 49.771a2.496 2.496 0 0 1-2.495-2.492 2.496 2.496 0 0 1 2.495-2.492 2.495 2.495 0 0 1 2.493 2.492 2.495 2.495 0 0 1-2.493 2.492zm110.187-56.497c-2.187 0-3.97 1.67-4.192 3.796h-56.613l-46.857 46.83a4.195 4.195 0 0 0-2.525-.855 4.24 4.24 0 0 0-4.237 4.234 4.24 4.24 0 0 0 4.237 4.233 4.24 4.24 0 0 0 4.236-4.233c0-.753-.215-1.451-.561-2.065l46.429-46.403h56.073c.554 1.695 2.132 2.93 4.01 2.93a4.24 4.24 0 0 0 4.237-4.234 4.24 4.24 0 0 0-4.237-4.233zm-417.26 6.586a2.496 2.496 0 0 1-2.494-2.493 2.496 2.496 0 0 1 2.494-2.492 2.495 2.495 0 0 1 2.493 2.492 2.495 2.495 0 0 1-2.493 2.493zm197.22-137.944a2.495 2.495 0 0 1 2.493 2.492 2.495 2.495 0 0 1-2.493 2.492 2.496 2.496 0 0 1-2.495-2.492 2.496 2.496 0 0 1 2.495-2.492zM27.03 593.16h83.306l84.667-100.414c.521.23 1.094.361 1.7.361a4.24 4.24 0 0 0 4.236-4.233 4.24 4.24 0 0 0-4.236-4.235 4.24 4.24 0 0 0-4.237 4.235c0 1.1.432 2.094 1.122 2.847l-84.063 99.696H26.32L1.736 618.262a4.198 4.198 0 0 0-2.253-.663 4.24 4.24 0 0 0-4.236 4.234 4.24 4.24 0 0 0 4.236 4.234 4.24 4.24 0 0 0 4.237-4.234c0-.89-.28-1.715-.752-2.398L27.03 593.16zm-55.73 6.936a2.495 2.495 0 0 1-2.494-2.493 2.495 2.495 0 0 1 2.494-2.492 2.496 2.496 0 0 1 2.493 2.492 2.496 2.496 0 0 1-2.493 2.493zm202.216-139.728a2.496 2.496 0 0 1 2.493 2.492 2.496 2.496 0 0 1-2.493 2.492 2.496 2.496 0 0 1-2.495-2.492 2.496 2.496 0 0 1 2.495-2.492zM27.03 539.166h83.302l61.653-72.37c.476.186.99.298 1.53.298a4.24 4.24 0 0 0 4.237-4.234 4.24 4.24 0 0 0-4.236-4.234 4.24 4.24 0 0 0-4.237 4.234c0 1.162.472 2.215 1.233 2.98l-60.984 71.584H26.32L-26.506 594a4.2 4.2 0 0 0-2.194-.63 4.24 4.24 0 0 0-4.237 4.233 4.24 4.24 0 0 0 4.237 4.235 4.24 4.24 0 0 0 4.236-4.235c0-.914-.299-1.756-.795-2.45l52.289-55.987zm-46.554 70.427a2.496 2.496 0 0 1-2.494-2.492 2.496 2.496 0 0 1 2.494-2.492 2.495 2.495 0 0 1 2.493 2.492 2.495 2.495 0 0 1-2.493 2.492zM181.244 469.04a2.496 2.496 0 0 1 2.494 2.492 2.495 2.495 0 0 1-2.494 2.492 2.495 2.495 0 0 1-2.493-2.492 2.496 2.496 0 0 1 2.493-2.492zM-16.313 604.37l43.343-47.207h83.304l69.32-81.714c.493.2 1.028.315 1.59.315a4.24 4.24 0 0 0 4.237-4.234 4.24 4.24 0 0 0-4.237-4.234 4.24 4.24 0 0 0-4.236 4.234c0 1.142.459 2.175 1.196 2.937l-68.677 80.954H26.32l-43.976 47.898a4.185 4.185 0 0 0-1.868-.452 4.24 4.24 0 0 0-4.236 4.233 4.24 4.24 0 0 0 4.236 4.235 4.24 4.24 0 0 0 4.236-4.235c0-1.045-.395-1.99-1.025-2.73zm416.38 31.662a2.497 2.497 0 0 1-2.494-2.493 2.497 2.497 0 0 1 2.495-2.493 2.496 2.496 0 0 1 2.493 2.493 2.497 2.497 0 0 1-2.493 2.493zm-82.102 40.998a2.496 2.496 0 0 1-2.494-2.492 2.496 2.496 0 0 1 2.494-2.492 2.496 2.496 0 0 1 2.494 2.492 2.496 2.496 0 0 1-2.494 2.492zm82.103-47.725c-2.187 0-3.97 1.67-4.193 3.796h-39.937l-35.482 38.029a4.207 4.207 0 0 0-2.49-.825 4.24 4.24 0 0 0-4.238 4.233 4.24 4.24 0 0 0 4.237 4.235 4.24 4.24 0 0 0 4.236-4.235 4.18 4.18 0 0 0-.582-2.104l35.04-37.591h39.399c.554 1.694 2.131 2.93 4.01 2.93a4.24 4.24 0 0 0 4.236-4.234 4.24 4.24 0 0 0-4.236-4.234zm-438-36.786a2.497 2.497 0 0 1-2.494-2.493 2.497 2.497 0 0 1 2.494-2.492 2.496 2.496 0 0 1 2.494 2.492 2.497 2.497 0 0 1-2.494 2.493zm203.718-140.823a2.496 2.496 0 0 1 2.494 2.492 2.496 2.496 0 0 1-2.494 2.492 2.495 2.495 0 0 1-2.494-2.492 2.495 2.495 0 0 1 2.494-2.492zM27.03 521.169h83.302l53.983-63.025c.46.172.952.278 1.47.278a4.24 4.24 0 0 0 4.238-4.233 4.24 4.24 0 0 0-4.237-4.235 4.24 4.24 0 0 0-4.236 4.235c0 1.181.49 2.25 1.274 3.018l-53.295 62.22H26.32l-61.98 67.039a4.205 4.205 0 0 0-2.272-.673 4.24 4.24 0 0 0-4.236 4.234 4.24 4.24 0 0 0 4.236 4.234 4.24 4.24 0 0 0 4.236-4.234c0-.883-.273-1.703-.738-2.383L27.03 521.17zm523.534-223.76a2.496 2.496 0 0 1-2.494 2.491 2.496 2.496 0 0 1-2.494-2.492 2.496 2.496 0 0 1 2.494-2.492 2.496 2.496 0 0 1 2.494 2.492zm-393.91-69.5a2.496 2.496 0 0 1-2.493-2.492 2.496 2.496 0 0 1 2.494-2.492 2.496 2.496 0 0 1 2.494 2.492 2.496 2.496 0 0 1-2.494 2.493zm387.271 68.629H438.836l-60.152-71.68-.261-.311H160.8a4.242 4.242 0 0 0-4.145-3.363 4.24 4.24 0 0 0-4.236 4.233 4.24 4.24 0 0 0 4.236 4.235 4.242 4.242 0 0 0 4.145-3.364h216.81l60.153 71.68.26.31h105.902a4.242 4.242 0 0 0 4.145 3.365 4.24 4.24 0 0 0 4.236-4.235 4.24 4.24 0 0 0-4.236-4.234 4.242 4.242 0 0 0-4.145 3.364zM244.34 4.373a2.495 2.495 0 0 1 2.493 2.492 2.495 2.495 0 0 1-2.493 2.492 2.495 2.495 0 0 1-2.494-2.492 2.495 2.495 0 0 1 2.494-2.492zM83.62 145.603a2.496 2.496 0 0 1-2.493-2.492 2.496 2.496 0 0 1 2.493-2.493 2.496 2.496 0 0 1 2.494 2.493 2.496 2.496 0 0 1-2.494 2.492zm160.062-134.57v32.914l-157.227 96.04a4.207 4.207 0 0 0-2.835-1.11 4.24 4.24 0 0 0-4.236 4.234 4.24 4.24 0 0 0 4.236 4.234 4.24 4.24 0 0 0 4.236-4.234c0-.61-.135-1.189-.37-1.713l157.938-96.475V10.94c1.808-.483 3.15-2.118 3.15-4.075a4.24 4.24 0 0 0-4.235-4.233 4.24 4.24 0 0 0-4.237 4.233c0 2.11 1.557 3.85 3.58 4.168zM430.24 359.03a2.497 2.497 0 0 1-2.495-2.493 2.497 2.497 0 0 1 2.495-2.492 2.496 2.496 0 0 1 2.493 2.492 2.497 2.497 0 0 1-2.493 2.493zm-126.208 0a2.496 2.496 0 0 1-2.493-2.493 2.496 2.496 0 0 1 2.493-2.492 2.496 2.496 0 0 1 2.494 2.492 2.496 2.496 0 0 1-2.494 2.493zm126.208-6.727a4.24 4.24 0 0 0-4.237 4.234H308.268a4.24 4.24 0 0 0-4.236-4.234 4.24 4.24 0 0 0-4.236 4.234 4.24 4.24 0 0 0 4.236 4.234 4.236 4.236 0 0 0 3.852-2.492h118.504a4.237 4.237 0 0 0 3.852 2.492 4.24 4.24 0 0 0 4.236-4.234 4.24 4.24 0 0 0-4.236-4.234zm92.377-145.8a2.496 2.496 0 0 1 2.495 2.493 2.496 2.496 0 0 1-2.495 2.492 2.496 2.496 0 0 1-2.493-2.492 2.496 2.496 0 0 1 2.493-2.493zM427.733 237.5a2.496 2.496 0 0 1-2.493-2.493 2.496 2.496 0 0 1 2.493-2.493 2.497 2.497 0 0 1 2.495 2.493 2.497 2.497 0 0 1-2.495 2.493zm2.043-6.18a4.183 4.183 0 0 0-2.043-.547 4.24 4.24 0 0 0-4.236 4.234 4.24 4.24 0 0 0 4.236 4.234 4.24 4.24 0 0 0 4.237-4.234c0-.96-.333-1.835-.873-2.545l17.473-22.595h69.903a4.241 4.241 0 0 0 4.144 3.363 4.24 4.24 0 0 0 4.237-4.233 4.24 4.24 0 0 0-4.237-4.235 4.242 4.242 0 0 0-4.144 3.364h-70.758l-17.94 23.195zM133.588 10.514a2.496 2.496 0 0 1 2.493 2.493 2.495 2.495 0 0 1-2.493 2.492 2.495 2.495 0 0 1-2.494-2.492 2.496 2.496 0 0 1 2.494-2.493zm-90.981 92.106a2.496 2.496 0 0 1-2.495-2.492 2.496 2.496 0 0 1 2.495-2.492 2.496 2.496 0 0 1 2.493 2.492 2.496 2.496 0 0 1-2.493 2.492zm90.145-85.465v26.794L45.733 97.295a4.213 4.213 0 0 0-3.126-1.403 4.24 4.24 0 0 0-4.237 4.235 4.24 4.24 0 0 0 4.237 4.234 4.24 4.24 0 0 0 4.236-4.234c0-.466-.095-.907-.234-1.327l87.886-53.878V17.136a4.237 4.237 0 0 0 3.33-4.13 4.24 4.24 0 0 0-4.237-4.235 4.24 4.24 0 0 0-4.237 4.235 4.24 4.24 0 0 0 3.4 4.148zm85.37 355.218a2.495 2.495 0 0 1-2.493-2.493 2.496 2.496 0 0 1 2.494-2.492 2.497 2.497 0 0 1 2.494 2.492 2.496 2.496 0 0 1-2.494 2.493zm253.59-5.623a2.496 2.496 0 0 1 2.494 2.492 2.496 2.496 0 0 1-2.494 2.493 2.496 2.496 0 0 1-2.494-2.493 2.496 2.496 0 0 1 2.494-2.492zm0 6.727a4.24 4.24 0 0 0 4.236-4.235 4.24 4.24 0 0 0-4.236-4.233 4.241 4.241 0 0 0-4.144 3.363H222.069a4.233 4.233 0 0 0-3.946-2.725 4.24 4.24 0 0 0-4.236 4.233 4.24 4.24 0 0 0 4.236 4.235c2.257 0 4.09-1.777 4.213-4.002h245.232a4.242 4.242 0 0 0 4.144 3.364zm-70.352-46.68a2.496 2.496 0 0 1-2.494-2.492 2.496 2.496 0 0 1 2.494-2.493 2.496 2.496 0 0 1 2.493 2.493 2.496 2.496 0 0 1-2.493 2.492zm-193.55 34.086a2.496 2.496 0 0 1-2.494-2.492 2.496 2.496 0 0 1 2.494-2.492 2.496 2.496 0 0 1 2.494 2.492 2.496 2.496 0 0 1-2.494 2.492zm193.55-40.812a4.236 4.236 0 0 0-4.16 3.472H257.918l-21.128 32.996H211.6c-.69-1.404-2.122-2.382-3.791-2.382a4.24 4.24 0 0 0-4.236 4.234 4.24 4.24 0 0 0 4.236 4.234 4.24 4.24 0 0 0 4.237-4.234c0-.038-.01-.073-.011-.111h25.708l21.128-32.996h138.376v-.003a4.235 4.235 0 0 0 4.112 3.258 4.24 4.24 0 0 0 4.236-4.234 4.24 4.24 0 0 0-4.236-4.234zM155.738 6.127a2.496 2.496 0 0 1 2.494 2.492 2.496 2.496 0 0 1-2.494 2.492 2.495 2.495 0 0 1-2.494-2.492 2.495 2.495 0 0 1 2.494-2.492zM50.922 111.08a2.496 2.496 0 0 1-2.494-2.492 2.496 2.496 0 0 1 2.494-2.493 2.495 2.495 0 0 1 2.494 2.493 2.495 2.495 0 0 1-2.494 2.492zm104.016-98.307v31.174l-100.904 61.79a4.215 4.215 0 0 0-3.112-1.384 4.24 4.24 0 0 0-4.236 4.235 4.24 4.24 0 0 0 4.236 4.233 4.24 4.24 0 0 0 4.237-4.233c0-.475-.096-.923-.241-1.35L156.68 44.923V12.74c1.883-.43 3.294-2.11 3.294-4.12a4.24 4.24 0 0 0-4.236-4.233 4.24 4.24 0 0 0-4.237 4.233 4.238 4.238 0 0 0 3.437 4.154zm387.726 245.455a2.496 2.496 0 0 1-2.493 2.492 2.496 2.496 0 0 1-2.494-2.492 2.496 2.496 0 0 1 2.494-2.493 2.496 2.496 0 0 1 2.493 2.493zm-330.119-67.76a2.495 2.495 0 0 1-2.493-2.493 2.496 2.496 0 0 1 2.493-2.493 2.496 2.496 0 0 1 2.494 2.493 2.495 2.495 0 0 1-2.494 2.492zm323.389 67.76c0 .1.023.192.03.29h-97.128l-60.413-71.99H216.51c-.594-1.622-2.14-2.787-3.965-2.787a4.24 4.24 0 0 0-4.237 4.234 4.24 4.24 0 0 0 4.237 4.233c2.235 0 4.052-1.743 4.207-3.939H377.61l60.414 71.99h98.453c.723 1.307 2.099 2.203 3.694 2.203a4.24 4.24 0 0 0 4.237-4.234 4.24 4.24 0 0 0-4.237-4.234 4.24 4.24 0 0 0-4.237 4.234zm-151.362 50.037a2.496 2.496 0 0 1-2.494-2.492 2.496 2.496 0 0 1 2.494-2.492 2.495 2.495 0 0 1 2.493 2.492 2.495 2.495 0 0 1-2.493 2.492zm-197.387 29.638a2.495 2.495 0 0 1-2.493-2.492 2.495 2.495 0 0 1 2.493-2.492 2.495 2.495 0 0 1 2.494 2.492 2.495 2.495 0 0 1-2.494 2.492zm197.387-36.364c-2.276 0-4.125 1.807-4.219 4.06H246.61l-21.52 28.942h-33.76a4.242 4.242 0 0 0-4.145-3.364 4.24 4.24 0 0 0-4.236 4.234 4.24 4.24 0 0 0 4.236 4.234 4.242 4.242 0 0 0 4.145-3.363h34.637l21.519-28.942h133.158a4.237 4.237 0 0 0 3.928 2.667 4.24 4.24 0 0 0 4.236-4.234 4.24 4.24 0 0 0-4.236-4.234zm24.979 35.51a2.495 2.495 0 0 1-2.494-2.492 2.495 2.495 0 0 1 2.494-2.493 2.495 2.495 0 0 1 2.493 2.493 2.495 2.495 0 0 1-2.493 2.492zm-164.998 23.833a2.496 2.496 0 0 1-2.494-2.492 2.496 2.496 0 0 1 2.494-2.492 2.495 2.495 0 0 1 2.494 2.492 2.495 2.495 0 0 1-2.494 2.492zm164.998-30.56a4.24 4.24 0 0 0-4.131 3.321h-99.972l-15.799 24.055h-40.93c-.333-2.005-2.067-3.542-4.166-3.542a4.24 4.24 0 0 0-4.237 4.234 4.24 4.24 0 0 0 4.237 4.234c1.971 0 3.619-1.359 4.089-3.184h41.948l15.798-24.055h99.01a4.242 4.242 0 0 0 4.153 3.406 4.24 4.24 0 0 0 4.237-4.234 4.24 4.24 0 0 0-4.237-4.234zM222.188 2.62a2.495 2.495 0 0 1 2.494 2.492 2.495 2.495 0 0 1-2.494 2.492 2.495 2.495 0 0 1-2.493-2.492 2.495 2.495 0 0 1 2.493-2.492zM75.392 137.063a2.496 2.496 0 0 1-2.494-2.493 2.495 2.495 0 0 1 2.494-2.492 2.496 2.496 0 0 1 2.493 2.492 2.497 2.497 0 0 1-2.493 2.493zM221.496 9.275v34.672l-143.232 87.53a4.21 4.21 0 0 0-2.872-1.14 4.24 4.24 0 0 0-4.237 4.233 4.24 4.24 0 0 0 4.237 4.235 4.24 4.24 0 0 0 4.236-4.235 4.2 4.2 0 0 0-.348-1.672l143.542-87.72.416-.255V9.197c1.827-.47 3.186-2.116 3.186-4.086a4.24 4.24 0 0 0-4.236-4.234 4.24 4.24 0 0 0-4.236 4.234c0 2.097 1.538 3.83 3.544 4.164zm-21.458-7.533a2.496 2.496 0 0 1 2.494 2.492 2.496 2.496 0 0 1-2.494 2.492 2.495 2.495 0 0 1-2.494-2.492 2.495 2.495 0 0 1 2.494-2.492zM67.324 128.002a2.496 2.496 0 0 1-2.494-2.494 2.495 2.495 0 0 1 2.494-2.492 2.495 2.495 0 0 1 2.493 2.492 2.496 2.496 0 0 1-2.493 2.493zM199.31 8.393v35.553l-128.826 78.77a4.21 4.21 0 0 0-3.16-1.442 4.24 4.24 0 0 0-4.237 4.233 4.24 4.24 0 0 0 4.237 4.235 4.24 4.24 0 0 0 4.236-4.235c0-.447-.088-.87-.218-1.275l129.294-79.055.416-.255V8.331c1.846-.457 3.223-2.114 3.223-4.097a4.24 4.24 0 0 0-4.237-4.235 4.24 4.24 0 0 0-4.236 4.235c0 2.085 1.52 3.813 3.508 4.16zm91.357 335.427a2.496 2.496 0 0 1 2.493 2.492 2.496 2.496 0 0 1-2.493 2.492 2.495 2.495 0 0 1-2.494-2.492 2.496 2.496 0 0 1 2.494-2.492zm-38.083 4.984a2.496 2.496 0 0 1-2.494-2.492 2.497 2.497 0 0 1 2.494-2.492 2.496 2.496 0 0 1 2.494 2.492 2.496 2.496 0 0 1-2.494 2.492zm0-6.726a4.24 4.24 0 0 0-4.236 4.234 4.24 4.24 0 0 0 4.236 4.234 4.242 4.242 0 0 0 4.144-3.363h29.794a4.242 4.242 0 0 0 4.145 3.363 4.24 4.24 0 0 0 4.236-4.234 4.24 4.24 0 0 0-4.236-4.234 4.242 4.242 0 0 0-4.145 3.363h-29.794a4.241 4.241 0 0 0-4.144-3.363zm291.975-66.173a2.497 2.497 0 0 1 2.494 2.492 2.497 2.497 0 0 1-2.494 2.493 2.496 2.496 0 0 1-2.494-2.493 2.496 2.496 0 0 1 2.494-2.492zm-359.196-67.005a2.496 2.496 0 0 1-2.494-2.493 2.496 2.496 0 0 1 2.494-2.493 2.496 2.496 0 0 1 2.493 2.493 2.497 2.497 0 0 1-2.493 2.493zm355.052 68.627H438.836l-60.413-71.991H189.507a4.242 4.242 0 0 0-4.144-3.363 4.24 4.24 0 0 0-4.237 4.234 4.24 4.24 0 0 0 4.237 4.234 4.242 4.242 0 0 0 4.144-3.363H377.61l60.414 71.99h102.39a4.242 4.242 0 0 0 4.145 3.364 4.24 4.24 0 0 0 4.237-4.235 4.24 4.24 0 0 0-4.237-4.233 4.241 4.241 0 0 0-4.144 3.363zm-147.301 40.405a2.496 2.496 0 0 1-2.494-2.492 2.496 2.496 0 0 1 2.494-2.492 2.496 2.496 0 0 1 2.494 2.492 2.496 2.496 0 0 1-2.494 2.492zm-195.616 31.46a2.495 2.495 0 0 1-2.494-2.492 2.495 2.495 0 0 1 2.494-2.493 2.495 2.495 0 0 1 2.494 2.493 2.495 2.495 0 0 1-2.494 2.492zm195.616-38.186a4.242 4.242 0 0 0-4.145 3.363H252.264L230.94 345.54h-29.45c-.571-1.665-2.135-2.873-3.992-2.873a4.24 4.24 0 0 0-4.237 4.235 4.24 4.24 0 0 0 4.237 4.234c2.206 0 4.002-1.7 4.198-3.855h30.16l21.324-30.968h135.79a4.242 4.242 0 0 0 4.144 3.363 4.24 4.24 0 0 0 4.236-4.234 4.24 4.24 0 0 0-4.236-4.234zm27.772 35.993a2.496 2.496 0 0 1-2.494-2.492 2.496 2.496 0 0 1 2.494-2.492 2.495 2.495 0 0 1 2.494 2.492 2.495 2.495 0 0 1-2.494 2.492zm-112.127.871a2.495 2.495 0 0 1-2.494-2.492 2.495 2.495 0 0 1 2.494-2.492 2.495 2.495 0 0 1 2.493 2.492 2.495 2.495 0 0 1-2.493 2.492zm112.127-7.597a4.24 4.24 0 0 0-4.237 4.234H312.903a4.241 4.241 0 0 0-4.144-3.363 4.24 4.24 0 0 0-4.237 4.234 4.24 4.24 0 0 0 4.237 4.234 4.242 4.242 0 0 0 4.144-3.363h104.132a4.234 4.234 0 0 0 3.85 2.492 4.24 4.24 0 0 0 4.237-4.234 4.24 4.24 0 0 0-4.236-4.234zm115.774-95.176a2.496 2.496 0 0 1 2.494 2.492 2.496 2.496 0 0 1-2.494 2.492 2.496 2.496 0 0 1-2.494-2.492 2.496 2.496 0 0 1 2.494-2.492zm-87.09 4.984a2.495 2.495 0 0 1-2.494-2.492 2.495 2.495 0 0 1 2.493-2.492 2.495 2.495 0 0 1 2.494 2.492 2.495 2.495 0 0 1-2.494 2.492zm82.946-3.362h-78.803a4.241 4.241 0 0 0-4.144-3.363 4.24 4.24 0 0 0-4.237 4.233 4.24 4.24 0 0 0 4.237 4.235 4.242 4.242 0 0 0 4.144-3.364h78.803a4.242 4.242 0 0 0 4.144 3.364 4.24 4.24 0 0 0 4.236-4.235 4.24 4.24 0 0 0-4.236-4.233 4.242 4.242 0 0 0-4.144 3.363zM177.888 3.496a2.496 2.496 0 0 1 2.494 2.492 2.496 2.496 0 0 1-2.494 2.492 2.496 2.496 0 0 1-2.494-2.492 2.496 2.496 0 0 1 2.494-2.492zM59.092 119.54a2.496 2.496 0 0 1-2.493-2.493 2.495 2.495 0 0 1 2.493-2.492 2.495 2.495 0 0 1 2.494 2.492 2.496 2.496 0 0 1-2.494 2.493zM177.124 10.145v33.802L62.239 114.24a4.211 4.211 0 0 0-3.147-1.426 4.24 4.24 0 0 0-4.236 4.234 4.24 4.24 0 0 0 4.236 4.234 4.24 4.24 0 0 0 4.237-4.234c0-.455-.091-.886-.225-1.296l115.763-70.829V10.097c1.863-.445 3.257-2.113 3.257-4.109a4.24 4.24 0 0 0-4.236-4.234 4.24 4.24 0 0 0-4.236 4.234c0 2.073 1.5 3.795 3.472 4.157zM-8.504 78.105a2.495 2.495 0 0 1 2.494 2.493 2.495 2.495 0 0 1-2.494 2.492 2.496 2.496 0 0 1-2.493-2.492 2.496 2.496 0 0 1 2.493-2.492zm91.12 81.387a2.495 2.495 0 0 1 2.493 2.492 2.495 2.495 0 0 1-2.493 2.492 2.496 2.496 0 0 1-2.495-2.492 2.496 2.496 0 0 1 2.495-2.492zm-91.12-74.66a4.242 4.242 0 0 0 4.145-3.363H6.958l72.548 77.662a4.204 4.204 0 0 0-1.127 2.853 4.24 4.24 0 0 0 4.237 4.235 4.24 4.24 0 0 0 4.236-4.235 4.24 4.24 0 0 0-4.236-4.234c-.687 0-1.326.18-1.9.47l.172-.162-72.924-78.06-.257-.271H-4.36a4.242 4.242 0 0 0-4.145-3.363 4.24 4.24 0 0 0-4.236 4.234 4.24 4.24 0 0 0 4.236 4.234zM551.58 356.929a2.495 2.495 0 0 1-2.493-2.492 2.495 2.495 0 0 1 2.493-2.492 2.495 2.495 0 0 1 2.494 2.492 2.495 2.495 0 0 1-2.494 2.492zM73.596 284.94a2.495 2.495 0 0 1-2.493-2.493 2.495 2.495 0 0 1 2.493-2.492 2.495 2.495 0 0 1 2.494 2.492 2.495 2.495 0 0 1-2.494 2.493zm477.984 65.264a4.242 4.242 0 0 0-4.144 3.363h-108.6l-60.413-71.99H77.74a4.242 4.242 0 0 0-4.145-3.363 4.24 4.24 0 0 0-4.236 4.233 4.24 4.24 0 0 0 4.236 4.235 4.24 4.24 0 0 0 4.144-3.364h299.87l60.414 71.99h109.412a4.242 4.242 0 0 0 4.144 3.364 4.24 4.24 0 0 0 4.236-4.234 4.24 4.24 0 0 0-4.236-4.234zm1.616-33.785a2.495 2.495 0 0 1-2.493 2.492 2.495 2.495 0 0 1-2.494-2.492 2.495 2.495 0 0 1 2.494-2.492 2.495 2.495 0 0 1 2.493 2.492zm-423.8-69.498a2.495 2.495 0 0 1-2.493-2.493 2.495 2.495 0 0 1 2.493-2.492 2.495 2.495 0 0 1 2.494 2.492 2.495 2.495 0 0 1-2.494 2.493zm417.162 68.627H438.836l-60.413-71.99H133.54a4.242 4.242 0 0 0-4.144-3.364 4.24 4.24 0 0 0-4.236 4.234 4.24 4.24 0 0 0 4.236 4.234 4.241 4.241 0 0 0 4.144-3.363h244.07l60.414 71.99h108.534a4.242 4.242 0 0 0 4.145 3.364 4.24 4.24 0 0 0 4.236-4.234 4.24 4.24 0 0 0-4.236-4.234 4.242 4.242 0 0 0-4.145 3.363zm-34.472-130.293a2.496 2.496 0 0 1 2.494 2.492 2.497 2.497 0 0 1-2.494 2.493 2.497 2.497 0 0 1-2.494-2.493 2.497 2.497 0 0 1 2.494-2.492zm-92.837 41.518a2.495 2.495 0 0 1-2.493-2.492 2.495 2.495 0 0 1 2.493-2.492 2.496 2.496 0 0 1 2.494 2.492 2.496 2.496 0 0 1-2.494 2.492zm28.466-40.244l-26.37 34.095a4.185 4.185 0 0 0-2.096-.577 4.24 4.24 0 0 0-4.237 4.234 4.24 4.24 0 0 0 4.237 4.234 4.24 4.24 0 0 0 4.236-4.234c0-.937-.316-1.795-.833-2.497l25.918-33.514h59.332c.26 2.086 2.026 3.712 4.184 3.712a4.24 4.24 0 0 0 4.236-4.235 4.24 4.24 0 0 0-4.236-4.233c-1.91 0-3.509 1.277-4.036 3.015h-60.335zM-19.913 88.202a2.495 2.495 0 0 1 2.493 2.493 2.495 2.495 0 0 1-2.493 2.492 2.496 2.496 0 0 1-2.494-2.492 2.496 2.496 0 0 1 2.494-2.493zm93.51 77.155a2.496 2.496 0 0 1 2.493 2.493 2.496 2.496 0 0 1-2.494 2.493 2.496 2.496 0 0 1-2.493-2.493 2.496 2.496 0 0 1 2.493-2.493zm-93.51-70.428a4.242 4.242 0 0 0 4.145-3.364H.814l69.638 73.475a4.198 4.198 0 0 0-1.092 2.81 4.24 4.24 0 0 0 4.236 4.234 4.24 4.24 0 0 0 4.236-4.234 4.24 4.24 0 0 0-4.236-4.234c-.619 0-1.203.14-1.734.38l-70.04-73.9-.258-.272h-17.332a4.242 4.242 0 0 0-4.145-3.364 4.24 4.24 0 0 0-4.236 4.235 4.24 4.24 0 0 0 4.236 4.234zm279.305 238.714a2.495 2.495 0 0 1 2.494-2.492 2.495 2.495 0 0 1 2.494 2.492 2.495 2.495 0 0 1-2.494 2.493 2.495 2.495 0 0 1-2.494-2.493zm38.544-2.492a2.495 2.495 0 0 1 2.493 2.492 2.495 2.495 0 0 1-2.493 2.493 2.495 2.495 0 0 1-2.494-2.493 2.495 2.495 0 0 1 2.494-2.492zm-31.872 3.073h27.694c.286 2.058 2.04 3.653 4.178 3.653a4.24 4.24 0 0 0 4.236-4.234 4.24 4.24 0 0 0-4.236-4.234c-1.93 0-3.545 1.305-4.054 3.074H265.94c-.508-1.77-2.124-3.074-4.054-3.074a4.24 4.24 0 0 0-4.236 4.234 4.24 4.24 0 0 0 4.236 4.234c2.138 0 3.891-1.595 4.178-3.653zm-18.82 65.095a2.497 2.497 0 0 1-2.493-2.493 2.496 2.496 0 0 1 2.493-2.492 2.497 2.497 0 0 1 2.495 2.492 2.497 2.497 0 0 1-2.495 2.493zm205.996-4.985a2.496 2.496 0 0 1 2.493 2.492 2.497 2.497 0 0 1-2.493 2.493 2.497 2.497 0 0 1-2.495-2.493 2.497 2.497 0 0 1 2.495-2.492zm0 6.727a4.24 4.24 0 0 0 4.236-4.235 4.24 4.24 0 0 0-4.236-4.233 4.242 4.242 0 0 0-4.145 3.363H251.389a4.242 4.242 0 0 0-4.145-3.363 4.24 4.24 0 0 0-4.236 4.233 4.24 4.24 0 0 0 4.236 4.235 4.242 4.242 0 0 0 4.145-3.363h197.706a4.242 4.242 0 0 0 4.145 3.363zM25.898 80.713a2.496 2.496 0 0 1 2.494 2.492 2.497 2.497 0 0 1-2.494 2.493 2.496 2.496 0 0 1-2.494-2.493 2.496 2.496 0 0 1 2.494-2.492zm60.895-54.55a2.496 2.496 0 0 1 2.495-2.492 2.495 2.495 0 0 1 2.492 2.492 2.495 2.495 0 0 1-2.492 2.492 2.496 2.496 0 0 1-2.495-2.492zM25.898 87.44a4.24 4.24 0 0 0 4.236-4.235c0-.434-.085-.846-.207-1.24l60.196-37.043v-14.61a4.241 4.241 0 0 0 3.4-4.15 4.24 4.24 0 0 0-4.235-4.234 4.24 4.24 0 0 0-4.237 4.235 4.237 4.237 0 0 0 3.33 4.13V43.95L29.08 80.44c-.778-.893-1.908-1.47-3.182-1.47a4.24 4.24 0 0 0-4.237 4.234 4.24 4.24 0 0 0 4.237 4.235zm505.496 140.312a2.496 2.496 0 0 1 2.494 2.492 2.496 2.496 0 0 1-2.494 2.492 2.495 2.495 0 0 1-2.494-2.492 2.495 2.495 0 0 1 2.494-2.492zm-94.948 20.507a2.495 2.495 0 0 1-2.494-2.492 2.495 2.495 0 0 1 2.494-2.493c.418 0 .808.114 1.154.297l.673.513c.41.444.667 1.032.667 1.683a2.496 2.496 0 0 1-2.494 2.492zm1.892-6.26a4.182 4.182 0 0 0-1.892-.467 4.24 4.24 0 0 0-4.237 4.235 4.24 4.24 0 0 0 4.237 4.233 4.24 4.24 0 0 0 4.236-4.233 4.193 4.193 0 0 0-.983-2.68l8.874-11.623h78.785c.528 1.738 2.127 3.015 4.036 3.015a4.24 4.24 0 0 0 4.237-4.235 4.24 4.24 0 0 0-4.237-4.234c-2.157 0-3.922 1.625-4.183 3.712h-79.5L438.338 242zm-326.9-226.223a2.495 2.495 0 0 1 2.493 2.492 2.495 2.495 0 0 1-2.494 2.492 2.495 2.495 0 0 1-2.493-2.492 2.495 2.495 0 0 1 2.493-2.492zM34.571 94.158a2.495 2.495 0 0 1-2.494-2.492 2.495 2.495 0 0 1 2.494-2.492 2.495 2.495 0 0 1 2.493 2.492 2.495 2.495 0 0 1-2.493 2.492zm75.994-71.748v21.538l-72.948 44.79a4.217 4.217 0 0 0-3.046-1.305 4.24 4.24 0 0 0-4.236 4.233 4.24 4.24 0 0 0 4.236 4.234 4.24 4.24 0 0 0 4.236-4.234c0-.51-.105-.995-.272-1.448l73.772-45.296V22.411a4.242 4.242 0 0 0 3.366-4.143 4.24 4.24 0 0 0-4.237-4.233 4.24 4.24 0 0 0-4.236 4.233 4.24 4.24 0 0 0 3.365 4.142zM551.58 338.052a2.495 2.495 0 0 1-2.493-2.492 2.495 2.495 0 0 1 2.493-2.492 2.495 2.495 0 0 1 2.494 2.492 2.495 2.495 0 0 1-2.494 2.492zM100.765 265.93a2.496 2.496 0 0 1-2.493-2.492 2.496 2.496 0 0 1 2.493-2.493 2.497 2.497 0 0 1 2.495 2.493 2.497 2.497 0 0 1-2.495 2.492zm450.815 65.397c-1.988 0-3.65 1.381-4.103 3.23h-108.64l-60.153-71.678-.261-.312H104.91a4.242 4.242 0 0 0-4.145-3.363 4.24 4.24 0 0 0-4.236 4.234 4.24 4.24 0 0 0 4.236 4.234 4.242 4.242 0 0 0 4.145-3.363h272.7l60.153 71.679.26.312H547.42a4.235 4.235 0 0 0 4.161 3.495 4.24 4.24 0 0 0 4.236-4.234 4.24 4.24 0 0 0-4.236-4.234zm-318.54 54.2a2.496 2.496 0 0 1-2.495-2.492 2.496 2.496 0 0 1 2.495-2.492 2.496 2.496 0 0 1 2.493 2.492 2.496 2.496 0 0 1-2.493 2.493zm229.436-4.984a2.495 2.495 0 0 1 2.493 2.492 2.495 2.495 0 0 1-2.493 2.493 2.495 2.495 0 0 1-2.494-2.493 2.495 2.495 0 0 1 2.494-2.492zm0 6.726a4.24 4.24 0 0 0 4.236-4.234 4.24 4.24 0 0 0-4.236-4.234 4.242 4.242 0 0 0-4.145 3.364H237.184a4.242 4.242 0 0 0-4.144-3.364 4.24 4.24 0 0 0-4.237 4.234 4.24 4.24 0 0 0 4.237 4.234 4.241 4.241 0 0 0 4.144-3.363H458.33a4.242 4.242 0 0 0 4.145 3.363zM376.55 299.9a2.496 2.496 0 0 1-2.494-2.492 2.496 2.496 0 0 1 2.494-2.492 2.495 2.495 0 0 1 2.493 2.492 2.495 2.495 0 0 1-2.493 2.492zm-199.679 26.514a2.496 2.496 0 0 1-2.493-2.492 2.496 2.496 0 0 1 2.493-2.492 2.496 2.496 0 0 1 2.495 2.492 2.496 2.496 0 0 1-2.495 2.492zm199.679-33.24a4.24 4.24 0 0 0-4.158 3.453H240.958l-21.714 26.915H181.07c-.195-2.155-1.992-3.855-4.199-3.855a4.24 4.24 0 0 0-4.236 4.235 4.24 4.24 0 0 0 4.236 4.233c1.857 0 3.421-1.207 3.992-2.872h39.212l21.716-26.914h130.643a4.236 4.236 0 0 0 4.116 3.274 4.24 4.24 0 0 0 4.237-4.235 4.24 4.24 0 0 0-4.237-4.234z" mask="url(#c)"/>
    </g>
</svg>
