<svg xmlns="http://www.w3.org/2000/svg" width="16" height="16" viewBox="0 0 16 16">
    <defs>
        <path id="a" d="M0 .016h15.984v16H0z"/>
    </defs>
    <g fill="none" fill-rule="evenodd">
        <path fill="#F7931A" d="M16.016 7.992c0 4.423-3.582 8.008-8 8.008-4.419 0-8-3.585-8-8.008 0-4.423 3.581-8.008 8-8.008 4.418 0 8 3.585 8 8.008z"/>
        <path fill="#FFF" d="M11.532 6.857c.15-1.076-.65-1.627-1.75-2.027l.35-1.452-.875-.2-.35 1.401c-.225-.05-.475-.1-.7-.175l.35-1.426-.875-.225-.35 1.451c-.2-.05-.375-.075-.55-.125l-1.2-.3-.225.951.65.15c.35.1.425.325.4.5l-.4 1.652c.025 0 .05.025.1.025-.025 0-.05-.025-.1-.025l-.575 2.302c-.05.1-.15.275-.4.2 0 .025-.65-.15-.65-.15l-.425 1.001 1.15.275c.225.05.425.1.625.151l-.375 1.451.875.225.35-1.451c.25.075.475.125.7.175l-.35 1.426.875.226.375-1.452c1.5.275 2.625.175 3.1-1.176.375-1.101-.025-1.727-.8-2.127.5-.075.925-.451 1.05-1.251zm-2 2.827c-.275 1.102-2.1.501-2.7.351l.475-1.927c.6.15 2.5.45 2.225 1.576zm.275-2.827c-.25 1.001-1.775.5-2.275.375l.425-1.752c.5.1 2.1.326 1.85 1.377z"/>
    </g>
</svg>
