<svg xmlns="http://www.w3.org/2000/svg" width="23" height="19" viewBox="0 0 23 19">
    <g fill="none" fill-rule="nonzero">
        <path fill="#F03233" d="M22.795.804h-4.12l-7.586 7.49L9.863 9.51l1.226 1.197 7.586 7.472h4.12L14.03 9.49z"/>
        <path fill="#264C8B" d="M7.024 12.633V7.4H6.11v-1.06H8.26v6.285H7.024z"/>
        <path fill="#264C8B" d="M11.246 15.246c-1.272-.01-3.033-.019-3.162-.037a6.141 6.141 0 0 1-1.475-.384 5.68 5.68 0 0 1-1.88-1.27 5.992 5.992 0 0 1-1.263-1.844 5.61 5.61 0 0 1-.461-2.202c.01-.785.166-1.498.46-2.201A5.992 5.992 0 0 1 4.73 5.463a5.546 5.546 0 0 1 1.88-1.27c.461-.183.959-.32 1.475-.384.129-.018 1.89-.027 3.162-.036l.009-.01 3.76-2.932h-4.783V.01H8.204V.84c-.092 0-.065.01-.083.01-.645.063-1.3.191-1.853.383V0h-2.12v2.21A8.452 8.452 0 0 0 2.655 3.39 9.134 9.134 0 0 0 .747 6.157a8.467 8.467 0 0 0-.71 3.252V9.59a8.301 8.301 0 0 0 .71 3.252 9.082 9.082 0 0 0 1.908 2.768c.46.457.94.85 1.493 1.178V19h2.12v-1.224a7.928 7.928 0 0 0 1.853.384c.009 0-.01 0 .083.009V19h2.028v-.822h4.793l-3.76-2.932h-.02z"/>
    </g>
</svg>
