<svg xmlns="http://www.w3.org/2000/svg" width="17" height="17" viewBox="0 0 17 17">
    <g fill="#FFF" fill-rule="evenodd">
        <path d="M11.699.154H5.416C2.525.154.18 2.49.18 5.37v6.26c0 2.88 2.345 5.216 5.236 5.216h6.283c2.89 0 5.235-2.336 5.235-5.216V5.37c0-2.88-2.344-5.216-5.235-5.216zm3.665 11.476a3.662 3.662 0 0 1-3.665 3.651H5.416a3.662 3.662 0 0 1-3.665-3.651V5.37A3.662 3.662 0 0 1 5.416 1.72h6.283a3.662 3.662 0 0 1 3.665 3.651v6.26z"/>
        <path d="M8.557 4.128A4.38 4.38 0 0 0 4.17 8.5a4.38 4.38 0 0 0 4.388 4.372A4.38 4.38 0 0 0 12.945 8.5a4.38 4.38 0 0 0-4.388-4.372zm0 7.104A2.741 2.741 0 0 1 5.815 8.5a2.74 2.74 0 0 1 2.742-2.732A2.74 2.74 0 0 1 11.3 8.5a2.741 2.741 0 0 1-2.743 2.732zM13.743 3.73a.398.398 0 1 1-.796 0 .398.398 0 0 1 .796 0z"/>
    </g>
</svg>
