<svg xmlns="http://www.w3.org/2000/svg" xmlns:xlink="http://www.w3.org/1999/xlink" width="104" height="42" viewBox="0 0 104 42">
    <defs>
        <path id="a" d="M0 42h103.823V0H0z"/>
    </defs>
    <g fill="none" fill-rule="evenodd">
        <path fill="#F33333" d="M49.41 1.777h-8.942L24.01 18.345l-2.664 2.69 2.664 2.64 16.458 16.52h8.942L30.384 20.987z"/>
        <path fill="#254C8C" d="M15.19 27.937V16.37h-1.982v-2.335h4.665v13.902z"/>
        <g>
            <path fill="#254C8C" d="M61.354 8.116v1.883a4.23 4.23 0 0 1-2.021.483c-1.193 0-2.19-.384-2.99-1.152-.874-.85-1.311-1.904-1.311-3.16 0-1.338.437-2.416 1.311-3.234.768-.727 1.768-1.09 3.002-1.09.719 0 1.388.168 2.01.507v1.884c-.532-.62-1.19-.93-1.973-.93-.8 0-1.452.283-1.955.85-.502.565-.753 1.245-.753 2.038 0 .867.277 1.555.833 2.063a2.78 2.78 0 0 0 1.936.762c.768 0 1.405-.301 1.911-.904M64.417 3.345v2.49h.454c.13 0 .259-.01.386-.03.126-.021.292-.067.496-.137a.971.971 0 0 0 .496-.384c.127-.186.19-.42.19-.7 0-.28-.061-.514-.184-.7a.942.942 0 0 0-.49-.384 2.74 2.74 0 0 0-.49-.13 2.839 2.839 0 0 0-.38-.025h-.478zM62.824 2.03h2.365c.899 0 1.593.207 2.083.62.54.462.81 1.082.81 1.859 0 .859-.32 1.507-.957 1.945a2.245 2.245 0 0 1-.894.36l2.549 3.482h-1.986l-2.18-3.322h-.197v3.322h-1.593V2.03zM71.708 10.297v-3.78l-2.806-4.486h1.887l1.752 2.875 1.752-2.875h1.887L73.3 6.517v3.78zM78.68 3.419v2.429h.65c.465 0 .812-.087 1.04-.26.295-.232.442-.554.442-.967 0-.405-.152-.719-.454-.942-.245-.173-.62-.26-1.127-.26h-.551zM77.087 2.03h2.377c.506 0 .92.043 1.243.13.323.087.627.254.913.502.556.496.834 1.16.834 1.995 0 .777-.225 1.392-.674 1.846-.482.488-1.173.732-2.071.732h-1.03v3.06h-1.592V2.032zM88.041 3.419h-1.838v6.878H84.61V3.419h-1.838V2.03h5.269zM90.712 8.22c.506.534 1.16.8 1.96.8s1.454-.266 1.96-.8c.507-.532.76-1.215.76-2.05 0-.834-.255-1.52-.765-2.057-.51-.537-1.162-.806-1.955-.806-.792 0-1.443.269-1.954.806-.51.537-.766 1.223-.766 2.057 0 .835.253 1.518.76 2.05M89.53 3.06c.812-.81 1.86-1.215 3.142-1.215 1.283 0 2.33.405 3.143 1.215.813.81 1.22 1.846 1.22 3.11 0 1.264-.407 2.299-1.22 3.104-.812.806-1.86 1.208-3.143 1.208-1.282 0-2.33-.402-3.142-1.208-.813-.805-1.22-1.84-1.22-3.104s.407-2.3 1.22-3.11M59.762 16.902v1.387h-2.745v1.847h2.573v1.388h-2.573v3.643h-1.593v-8.265z"/>
            <mask id="b" fill="#fff">
                <use xlink:href="#a"/>
            </mask>
            <path fill="#254C8C" d="M61.134 25.167h1.593v-8.265h-1.593zM66.182 25.167h-1.593v-8.452h1.103l4.974 5.75v-5.564h1.593v8.427h-1.102l-4.975-5.75zM76.168 22.119h2.328l-1.152-2.975-1.176 2.975zm3.516 3.048l-.722-1.735h-3.296l-.723 1.735h-1.728l3.541-8.439h1.2l3.444 8.439h-1.716zM83.949 25.167h-1.593v-8.452h1.102l4.975 5.75v-5.564h1.593v8.427h-1.103l-4.974-5.75zM97.819 22.986v1.883a4.228 4.228 0 0 1-2.022.484c-1.193 0-2.19-.384-2.99-1.153-.874-.85-1.31-1.904-1.31-3.16 0-1.338.436-2.416 1.31-3.234.768-.727 1.769-1.09 3.002-1.09.72 0 1.389.169 2.01.508v1.883c-.531-.62-1.189-.93-1.973-.93-.8 0-1.452.284-1.954.85-.502.566-.754 1.245-.754 2.038 0 .868.278 1.555.834 2.063.555.509 1.2.762 1.936.762.767 0 1.404-.301 1.91-.904M103.823 16.902v1.387h-2.941v1.847h2.818v1.388h-2.818v2.255h2.94v1.388H99.29v-8.265zM61.354 37.856v1.884a4.228 4.228 0 0 1-2.021.483c-1.193 0-2.19-.384-2.99-1.152-.874-.85-1.311-1.904-1.311-3.16 0-1.338.437-2.416 1.311-3.234.768-.727 1.768-1.09 3.002-1.09.719 0 1.388.169 2.01.507v1.884c-.532-.62-1.19-.93-1.973-.93-.8 0-1.452.284-1.955.85-.502.565-.753 1.245-.753 2.038 0 .867.277 1.555.833 2.063.555.508 1.2.762 1.936.762.768 0 1.405-.301 1.911-.905M62.825 31.772h1.593v6.878h2.524v1.388h-4.117zM68.044 31.772h1.593v5.192c0 .52.13.93.392 1.227.31.38.743.57 1.3.57.555 0 .988-.19 1.298-.57.261-.297.392-.706.392-1.227v-5.192h1.593v5.056c0 .942-.204 1.677-.613 2.206a2.78 2.78 0 0 1-1.145.88 3.81 3.81 0 0 1-1.526.31 3.81 3.81 0 0 1-1.525-.31c-.478-.207-.86-.5-1.146-.88-.408-.529-.613-1.264-.613-2.206v-5.056zM78.067 36.444v2.28h.686c.474 0 .837-.074 1.09-.223.336-.198.503-.516.503-.954 0-.446-.2-.76-.6-.942-.23-.107-.593-.161-1.09-.161h-.589zm0-3.358v2.119h.453a1.438 1.438 0 0 0 .533-.074c.135-.042.25-.098.343-.168a.9.9 0 0 0 .252-.322 1.12 1.12 0 0 0 .11-.515c0-.355-.115-.617-.343-.786-.229-.17-.523-.254-.882-.254h-.466zm-1.593-1.314h2.022c.89 0 1.556.174 1.997.52.507.397.76.967.76 1.71 0 .736-.307 1.277-.92 1.624.417.066.773.24 1.067.52.392.38.588.897.588 1.55 0 .693-.233 1.251-.698 1.673-.499.445-1.189.669-2.071.669h-2.745v-8.266zM24.319 33.69c-2.752-.019-6.583-.047-6.86-.084a12.9 12.9 0 0 1-3.194-.85c-1.585-.68-2.93-1.6-4.082-2.813a13.168 13.168 0 0 1-2.738-4.073A12.749 12.749 0 0 1 6.438 21a12.749 12.749 0 0 1 1.007-4.87 13.166 13.166 0 0 1 2.738-4.073c1.152-1.212 2.497-2.134 4.082-2.813a12.9 12.9 0 0 1 3.194-.85c.277-.037 4.108-.065 6.86-.085l.026-.014 8.153-6.478H22.111V0h-4.4v1.846c-.2.006-.145.012-.173.014-1.396.132-2.827.42-4.027.85V0h-4.6v4.888c-1.2.746-2.24 1.608-3.233 2.61a19.866 19.866 0 0 0-4.136 6.118 18.78 18.78 0 0 0-1.537 7.182H0L0 20.834l.002.17-.002.164v.034h.005c.049 2.625.573 4.922 1.532 7.182a19.863 19.863 0 0 0 4.14 6.114c.993 1.002 2.034 1.868 3.234 2.614V42h4.6v-2.71c1.2.43 2.63.718 4.027.85.028.002-.027.008.173.014V42h4.4v-1.817h10.387l-8.153-6.478-.026-.014z" mask="url(#b)"/>
        </g>
    </g>
</svg>
