<svg xmlns="http://www.w3.org/2000/svg" width="12" height="11" viewBox="0 0 12 11">
    <path fill="#FFF" fill-rule="evenodd" d="M11.68.112c-.167-.14-.436-.153-.897-.012-.32.102-3.167 1.18-5.68 2.218-2.256.935-4.09 1.756-4.308 1.859-.243.076-.769.307-.794.666-.013.23.18.436.55.603.398.205 2.155.795 2.527.91.128.436.884 2.987.923 3.141a.67.67 0 0 0 .282.41.273.273 0 0 0 .218.09c.09 0 .192-.038.282-.103.474-.384 1.295-1.243 1.525-1.487 1.013.795 2.116 1.68 2.218 1.782l.013.013c.244.205.5.32.73.32a.726.726 0 0 0 .232-.038c.269-.09.461-.346.525-.692 0-.013.013-.064.039-.154.436-1.897.782-3.564 1.064-4.961.269-1.372.487-2.718.615-3.436.026-.18.051-.32.064-.41.039-.257.064-.552-.128-.719zM3.347 6.318l6.115-4.052c.013-.013.039-.025.051-.038.013 0 .013-.013.026-.013s.013 0 .026-.013c-.013.013-.026.051-.052.077l-1.55 1.449c-1.078.987-2.488 2.282-3.424 3.128v.013l-.013.013s0 .012-.013.012c0 .013 0 .013-.012.026v.026c-.065.718-.18 1.948-.231 2.5v-.013c-.051-.154-.77-2.603-.923-3.115z"/>
</svg>
