<svg xmlns="http://www.w3.org/2000/svg" width="11" height="11" viewBox="0 0 11 11">
    <g fill="#FFF" fill-rule="nonzero">
        <path d="M2.66 10.215a5.46 5.46 0 0 0 2.82.781c3.026 0 5.52-2.469 5.52-5.498C11 2.472 8.51 0 5.48 0 2.46 0 .005 2.466.005 5.498c0 1.012.27 1.99.78 2.841L0 11l2.66-.785zM.648 5.498C.648 2.822 2.816.644 5.481.644c2.688 0 4.875 2.178 4.875 4.854s-2.187 4.854-4.875 4.854a4.815 4.815 0 0 1-2.6-.758l-.124-.08-1.804.533.532-1.804-.079-.124a4.853 4.853 0 0 1-.758-2.621z"/>
        <path d="M2.678 4.485A4.97 4.97 0 0 0 4.02 7.038a4.97 4.97 0 0 0 2.553 1.343c.64.121 1.58.14 2.038-.32l.256-.255c.13-.13.2-.301.2-.484a.68.68 0 0 0-.2-.483L7.844 5.815a.68.68 0 0 0-.484-.2.68.68 0 0 0-.483.2l-.256.256a.455.455 0 0 1-.609.002L4.992 5.01l-.005-.005a.402.402 0 0 1 0-.568l.256-.256a.684.684 0 0 0 0-.967L4.219 2.191a.685.685 0 0 0-.967 0l-.256.256c-.366.366-.488 1.147-.318 2.038zm.774-1.583c.268-.262.254-.267.284-.267.01 0 .02.004.028.011 1.078 1.084 1.035 1.02 1.035 1.052 0 .01-.004.02-.012.028l-.256.256a1.045 1.045 0 0 0-.002 1.476l1.02 1.064.006.005a1.099 1.099 0 0 0 1.521 0l.256-.256a.04.04 0 0 1 .056 0c1.079 1.084 1.035 1.02 1.035 1.051 0 .011-.004.02-.011.028l-.256.256c-.176.175-.734.28-1.462.142a4.319 4.319 0 0 1-2.219-1.165 4.318 4.318 0 0 1-1.164-2.219c-.14-.728-.034-1.286.14-1.462z"/>
    </g>
</svg>
