<svg xmlns="http://www.w3.org/2000/svg" xmlns:xlink="http://www.w3.org/1999/xlink" viewBox="0 0 681.15 424.43"><defs><style>.cls-1{fill:#4d6ea3;}.cls-2{fill:url(#linear-gradient);}.cls-3{fill:url(#linear-gradient-2);}.cls-4{fill:url(#linear-gradient-3);}.cls-5{fill:url(#linear-gradient-4);}.cls-6{fill:url(#linear-gradient-5);}.cls-7{fill:red;}</style><linearGradient id="linear-gradient" x1="90.92" y1="197.51" x2="281.08" y2="197.51" gradientUnits="userSpaceOnUse"><stop offset="0" stop-color="#495884"/><stop offset="0.14" stop-color="#526d9b"/><stop offset="0.39" stop-color="#618fbe"/><stop offset="0.62" stop-color="#6ca7d8"/><stop offset="0.83" stop-color="#73b6e8"/><stop offset="1" stop-color="#75bbed"/></linearGradient><linearGradient id="linear-gradient-2" x1="92.05" y1="212.22" x2="311.1" y2="212.22" xlink:href="#linear-gradient"/><linearGradient id="linear-gradient-3" x1="92.05" y1="233.36" x2="340.7" y2="233.36" xlink:href="#linear-gradient"/><linearGradient id="linear-gradient-4" x1="92.05" y1="179.23" x2="250.63" y2="179.23" xlink:href="#linear-gradient"/><linearGradient id="linear-gradient-5" x1="0" y1="212.22" x2="342.68" y2="212.22" xlink:href="#linear-gradient"/></defs><title>Ресурс 1</title><g id="Слой_2" data-name="Слой 2"><g id="Слой_1-2" data-name="Слой 1"><g id="_Группа_" data-name="&lt;Группа&gt;"><g id="_Группа_2" data-name="&lt;Группа&gt;"><path id="_Составной_контур_" data-name="&lt;Составной контур&gt;" class="cls-1" d="M415.35,111.72a18,18,0,0,0-6.62,1.18,14.36,14.36,0,0,0-5.2,3.44,15.8,15.8,0,0,0-3.39,5.58,21.92,21.92,0,0,0-1.22,7.59A22.72,22.72,0,0,0,400,137a14.33,14.33,0,0,0,3.19,5.36,13.27,13.27,0,0,0,5.08,3.25,19.72,19.72,0,0,0,6.8,1.09,37,37,0,0,0,5.56-.43A31.86,31.86,0,0,0,426,145v7.57a40.36,40.36,0,0,1-5.42,1.13,42.89,42.89,0,0,1-6,.41,30.4,30.4,0,0,1-10.73-1.74,20.92,20.92,0,0,1-7.73-4.92,20.43,20.43,0,0,1-4.67-7.61,29.25,29.25,0,0,1-1.56-9.78,30.26,30.26,0,0,1,1.67-10.19,23.7,23.7,0,0,1,4.81-8.15,21.87,21.87,0,0,1,7.86-5.42,27.89,27.89,0,0,1,10.68-2,38.66,38.66,0,0,1,5.78.41,28,28,0,0,1,4.92,1.17v7.46a34.82,34.82,0,0,0-5.35-1.26A33.83,33.83,0,0,0,415.35,111.72Z"/><path id="_Составной_контур_2" data-name="&lt;Составной контур&gt;" class="cls-1" d="M470.46,119.62a13.27,13.27,0,0,1-2.78,8.52q-2.78,3.5-8.59,5.19v.14l14.28,19.74H462.82l-13.06-18.59h-6v18.59h-8.79v-48h14.61a51.72,51.72,0,0,1,6.75.41,24.89,24.89,0,0,1,5.35,1.24,13.92,13.92,0,0,1,6.53,4.79A13.27,13.27,0,0,1,470.46,119.62Zm-22.39,7.64a41.15,41.15,0,0,0,5.11-.27,16,16,0,0,0,3.53-.81,6.86,6.86,0,0,0,3.68-2.75,7.75,7.75,0,0,0,1-4,7.08,7.08,0,0,0-.81-3.43,5.52,5.52,0,0,0-2.75-2.35,11.58,11.58,0,0,0-3.16-.84,34.43,34.43,0,0,0-4.7-.27h-6.28v14.71Z"/><path id="_Составной_контур_3" data-name="&lt;Составной контур&gt;" class="cls-1" d="M498.71,125.86l12.77-20.67h9.76L503,133.87v19.34h-8.79V133.87l-18.19-28.67h9.76l12.78,20.67Z"/><path id="_Составной_контур_4" data-name="&lt;Составной контур&gt;" class="cls-1" d="M541,134.62q-1.18,0-2.33,0t-2.15-.14v18.77H527.7v-48h13.85a53,53,0,0,1,6.08.31,27.6,27.6,0,0,1,4.65.91,15.06,15.06,0,0,1,7.57,4.81,13,13,0,0,1,2.66,8.4,13.45,13.45,0,0,1-1.44,6.26,13,13,0,0,1-4.2,4.72,20.82,20.82,0,0,1-6.75,3A36.34,36.34,0,0,1,541,134.62ZM536.49,127q.75.11,1.92.16t2.42.05a26.13,26.13,0,0,0,6-.57,11.43,11.43,0,0,0,3.88-1.6,6,6,0,0,0,2.12-2.48,7.73,7.73,0,0,0,.65-3.18,6.74,6.74,0,0,0-1-3.66,6.3,6.3,0,0,0-3.37-2.4,14.46,14.46,0,0,0-3.1-.63,44.05,44.05,0,0,0-4.54-.2h-5Z"/><path id="_Составной_контур_5" data-name="&lt;Составной контур&gt;" class="cls-1" d="M591.47,153.21h-8.79V112.55h-15.5v-7.36h39.76v7.36H591.47Z"/><path id="_Составной_контур_6" data-name="&lt;Составной контур&gt;" class="cls-1" d="M656.6,129.2A31,31,0,0,1,655,139.27a22.23,22.23,0,0,1-4.56,7.88,20.48,20.48,0,0,1-7.36,5.13,27.81,27.81,0,0,1-19.84,0,20.48,20.48,0,0,1-7.36-5.13,22.24,22.24,0,0,1-4.56-7.88,33.24,33.24,0,0,1,0-20.13,22.25,22.25,0,0,1,4.56-7.88,20.48,20.48,0,0,1,7.36-5.13,27.81,27.81,0,0,1,19.84,0,20.48,20.48,0,0,1,7.36,5.13,22.24,22.24,0,0,1,4.56,7.88A31,31,0,0,1,656.6,129.2Zm-9.08,0a24.63,24.63,0,0,0-1.08-7.66,15.67,15.67,0,0,0-3-5.47,12,12,0,0,0-4.52-3.27,15.85,15.85,0,0,0-11.48,0,11.93,11.93,0,0,0-4.52,3.27,15.67,15.67,0,0,0-3,5.47,27.78,27.78,0,0,0,0,15.32,15.47,15.47,0,0,0,3,5.45,12.18,12.18,0,0,0,4.52,3.27,15.61,15.61,0,0,0,11.48,0,12.2,12.2,0,0,0,4.52-3.27,15.47,15.47,0,0,0,3-5.45A24.62,24.62,0,0,0,647.52,129.2Z"/><path id="_Составной_контур_7" data-name="&lt;Составной контур&gt;" class="cls-1" d="M400.78,241.4H392v-48h30.57v7.36H400.78v12.42H419.4v7.36H400.78Z"/><path id="_Составной_контур_8" data-name="&lt;Составной контур&gt;" class="cls-1" d="M430.27,241.4v-48h8.79v48Z"/><path id="_Составной_контур_9" data-name="&lt;Составной контур&gt;" class="cls-1" d="M475.56,215.7q5.17,7.36,8.4,13.06h.22q-.43-9.36-.43-13.64V193.38h8.79v48h-9.22l-15.65-22.1q-4.13-5.74-8.54-13.31h-.22q.43,8.83.43,13.67V241.4h-8.79v-48h9.22Z"/><path id="_Составной_контур_10" data-name="&lt;Составной контур&gt;" class="cls-1" d="M531.5,229.16H513.42l-4.7,12.24h-9.37l19.06-48h8l19.05,48h-9.29Zm-9.11-24.22q-2.52,7.53-4.49,12.59l-1.64,4.27h12.41L527,217.53q-2-5.1-4.49-12.59Z"/><path id="_Составной_контур_11" data-name="&lt;Составной контур&gt;" class="cls-1" d="M577.33,215.7q5.17,7.36,8.4,13.06h.22q-.43-9.36-.43-13.64V193.38h8.79v48h-9.22l-15.65-22.1q-4.13-5.74-8.54-13.31h-.22q.43,8.83.43,13.67V241.4h-8.79v-48h9.22Z"/><path id="_Составной_контур_12" data-name="&lt;Составной контур&gt;" class="cls-1" d="M629.15,199.92a18,18,0,0,0-6.62,1.18,14.35,14.35,0,0,0-5.2,3.44,15.8,15.8,0,0,0-3.39,5.58,21.92,21.92,0,0,0-1.22,7.59,22.71,22.71,0,0,0,1.11,7.45,14.33,14.33,0,0,0,3.19,5.37,13.27,13.27,0,0,0,5.08,3.25,19.71,19.71,0,0,0,6.8,1.09,37,37,0,0,0,5.56-.43,31.91,31.91,0,0,0,5.31-1.26v7.57a40.44,40.44,0,0,1-5.42,1.13,43,43,0,0,1-6,.41,30.4,30.4,0,0,1-10.73-1.74,20.91,20.91,0,0,1-7.73-4.92A20.43,20.43,0,0,1,605.2,228a29.25,29.25,0,0,1-1.56-9.78,30.26,30.26,0,0,1,1.67-10.19,23.7,23.7,0,0,1,4.81-8.15A21.87,21.87,0,0,1,618,194.5a27.89,27.89,0,0,1,10.68-2,38.66,38.66,0,0,1,5.78.41,28,28,0,0,1,4.92,1.17v7.46a34.82,34.82,0,0,0-5.35-1.26A33.82,33.82,0,0,0,629.15,199.92Z"/><path id="_Составной_контур_13" data-name="&lt;Составной контур&gt;" class="cls-1" d="M657.53,234h23.61v7.36h-32.4v-48h31.11v7.36H657.53v12.42H676.7v7.36H657.53Z"/><path id="_Составной_контур_14" data-name="&lt;Составной контур&gt;" class="cls-1" d="M415.35,288.11a18.05,18.05,0,0,0-6.62,1.18,14.34,14.34,0,0,0-5.2,3.45,15.79,15.79,0,0,0-3.39,5.58,21.91,21.91,0,0,0-1.22,7.59,22.71,22.71,0,0,0,1.11,7.45,14.33,14.33,0,0,0,3.19,5.37,13.27,13.27,0,0,0,5.08,3.25,19.71,19.71,0,0,0,6.8,1.09,37,37,0,0,0,5.56-.43,31.91,31.91,0,0,0,5.31-1.26v7.57a40.44,40.44,0,0,1-5.42,1.13,43,43,0,0,1-6,.41,30.4,30.4,0,0,1-10.73-1.74,20.91,20.91,0,0,1-7.73-4.92,20.43,20.43,0,0,1-4.67-7.61,29.25,29.25,0,0,1-1.56-9.78,30.26,30.26,0,0,1,1.67-10.19,23.71,23.71,0,0,1,4.81-8.15,21.88,21.88,0,0,1,7.86-5.42,27.9,27.9,0,0,1,10.68-2,38.59,38.59,0,0,1,5.78.41,27.89,27.89,0,0,1,4.92,1.17v7.46a34.82,34.82,0,0,0-5.35-1.26A33.75,33.75,0,0,0,415.35,288.11Z"/><path id="_Составной_контур_15" data-name="&lt;Составной контур&gt;" class="cls-1" d="M443.73,281.58v40.66h22.46v7.36H434.94v-48Z"/><path id="_Составной_контур_16" data-name="&lt;Составной контур&gt;" class="cls-1" d="M494.33,330.49a28.68,28.68,0,0,1-6.78-.74,18.9,18.9,0,0,1-5.31-2.12,14.77,14.77,0,0,1-3.91-3.37,16.56,16.56,0,0,1-2.58-4.5,19.5,19.5,0,0,1-1.13-4.45,39.63,39.63,0,0,1-.34-5.45V281.58h8.79v27.49a20.92,20.92,0,0,0,1.22,8,9,9,0,0,0,4,4.61,14.15,14.15,0,0,0,12.34,0,9,9,0,0,0,4-4.61,20.92,20.92,0,0,0,1.22-8V281.58h8.79v28.28a39.61,39.61,0,0,1-.34,5.45,19.6,19.6,0,0,1-1.13,4.45,16.31,16.31,0,0,1-2.6,4.5,14.76,14.76,0,0,1-4,3.37,19.67,19.67,0,0,1-5.4,2.12A29.14,29.14,0,0,1,494.33,330.49Z"/><path id="_Составной_контур_17" data-name="&lt;Составной контур&gt;" class="cls-1" d="M560.68,294.35a11.88,11.88,0,0,1-1.4,5.72,10.8,10.8,0,0,1-4.63,4.32v.14a15.13,15.13,0,0,1,3.28,1.56,10.54,10.54,0,0,1,2.55,2.26,10.11,10.11,0,0,1,1.65,3,10.9,10.9,0,0,1,.59,3.7,14.14,14.14,0,0,1-.56,3.77,11.81,11.81,0,0,1-2,3.89,15.18,15.18,0,0,1-3.73,3.46,19.11,19.11,0,0,1-5.88,2.51q-.9.22-2,.39t-2.35.3q-1.29.13-2.87.18t-3.55.05h-14v-48h16.69a28.21,28.21,0,0,1,8.61,1.08,15.53,15.53,0,0,1,4.23,2.06,13.15,13.15,0,0,1,3,2.83,11.21,11.21,0,0,1,1.72,3.3A11.45,11.45,0,0,1,560.68,294.35Zm-18,7a15,15,0,0,0,5.35-.72,5.6,5.6,0,0,0,2.82-2.28,6.42,6.42,0,0,0,.84-3.28,6.08,6.08,0,0,0-1-3.39,5.76,5.76,0,0,0-3.3-2.21,12.2,12.2,0,0,0-2.26-.41q-1.29-.12-3.19-.12H534.7v12.42Zm-7.93,7.36v13.53h5.74q2.3,0,3.95-.13a18,18,0,0,0,2.84-.41,11.46,11.46,0,0,0,3-1.06,7.26,7.26,0,0,0,2-1.51,5.05,5.05,0,0,0,1.08-1.87,7.15,7.15,0,0,0,.32-2.17,5.77,5.77,0,0,0-1.11-3.52,6.68,6.68,0,0,0-3.48-2.26,12.71,12.71,0,0,0-2.44-.47q-1.4-.14-3.59-.14Z"/></g><g id="_Группа_3" data-name="&lt;Группа&gt;"><path id="_Контур_" data-name="&lt;Контур&gt;" class="cls-2" d="M92,265.5S89.51,282,92,279.88,281.08,115,281.08,115Z"/><path id="_Контур_2" data-name="&lt;Контур&gt;" class="cls-3" d="M92,309.48V296.79L311.1,115Z"/><polygon id="_Контур_3" data-name="&lt;Контур&gt;" class="cls-4" points="92.05 351.77 92.05 327.66 340.7 114.95 244.28 204.82 338.17 351.77 250.63 351.77 189.1 254.29 166.9 273.32 168.17 351.77 92.05 351.77"/><path id="_Составной_контур_18" data-name="&lt;Составной контур&gt;" class="cls-5" d="M168.17,178V116.64H92V246L250.63,112.42Zm-30.38,19.55h-14V147.4a23.3,23.3,0,0,1-2.29,1.06,21.93,21.93,0,0,1-3.39,1h-.79v-9.79a9.55,9.55,0,0,0,5.56-2.6,9.44,9.44,0,0,0,2.8-5.84h12.15Z"/></g><g id="_Группа_4" data-name="&lt;Группа&gt;"><path id="_Составной_контур_19" data-name="&lt;Составной контур&gt;" class="cls-6" d="M212.5,424.43a206.41,206.41,0,0,1-106.25-28.67,214.51,214.51,0,0,1-77.58-77.3Q0,269.85,0,212.5,0,154.6,28.67,106a214.57,214.57,0,0,1,77.58-77.3A206.41,206.41,0,0,1,212.5,0Q262,0,294,16.58t47.22,34A3.26,3.26,0,0,1,342.64,54a4.51,4.51,0,0,1-2,3.37,3.42,3.42,0,0,1-3.09.84,5.21,5.21,0,0,1-3.09-1.41Q319.31,40.48,288.95,25T212.5,9.56q-55.1,0-101.75,27.26a202.66,202.66,0,0,0-73.92,73.92Q9.55,157.41,9.56,212.5T36.82,314.25a202.52,202.52,0,0,0,73.92,73.92q46.65,27.27,101.75,27.26,39.34,0,71.39-14.62t50.6-29.23a3.45,3.45,0,0,1,3.09-.84,5.37,5.37,0,0,1,3.09,1.4,4.79,4.79,0,0,1-.56,7.31Q319.87,395.2,287,409.82T212.5,424.43ZM312.56,91.07q-3.94,1.69-6.18-.56-11.81-12.36-35.13-23.89T212.5,55.09q-47.79,0-86.57,25.3a5,5,0,0,1-3.65.84,4.27,4.27,0,0,1-3.09-2q-2.25-3.93,1.69-6.75a164.91,164.91,0,0,1,91.63-27q38.22,0,63,12.37t37.67,25.86a7,7,0,0,1,1.12,3.93A3.78,3.78,0,0,1,312.56,91.07Z"/></g><g id="_Группа_5" data-name="&lt;Группа&gt;"><g id="_Группа_6" data-name="&lt;Группа&gt;"><g id="_Группа_7" data-name="&lt;Группа&gt;"><path id="_Составной_контур_20" data-name="&lt;Составной контур&gt;" class="cls-7" d="M415,27.18a18.05,18.05,0,0,0-6.62,1.18,14.35,14.35,0,0,0-5.2,3.45,15.8,15.8,0,0,0-3.39,5.58A21.92,21.92,0,0,0,398.52,45a22.74,22.74,0,0,0,1.11,7.45,14.34,14.34,0,0,0,3.19,5.37A13.29,13.29,0,0,0,407.91,61a19.74,19.74,0,0,0,6.8,1.09,37,37,0,0,0,5.56-.43,32,32,0,0,0,5.31-1.26V68a40.39,40.39,0,0,1-5.42,1.13,42.85,42.85,0,0,1-6,.41,30.39,30.39,0,0,1-10.73-1.74,20.9,20.9,0,0,1-7.73-4.92A20.42,20.42,0,0,1,391,55.3a29.28,29.28,0,0,1-1.56-9.78,30.25,30.25,0,0,1,1.67-10.19,23.68,23.68,0,0,1,4.81-8.15,21.86,21.86,0,0,1,7.86-5.42,27.9,27.9,0,0,1,10.68-2,38.72,38.72,0,0,1,5.78.41,28,28,0,0,1,4.92,1.17V28.8a34.75,34.75,0,0,0-5.35-1.26A33.82,33.82,0,0,0,415,27.18Z"/><path id="_Составной_контур_21" data-name="&lt;Составной контур&gt;" class="cls-7" d="M501.19,68.66v-48H510V42.5h.14l18.12-21.85h10.91l-20,23.79,21.68,24.22H529.54L510.13,47H510V68.66Z"/></g></g><g id="_Группа_8" data-name="&lt;Группа&gt;"><path id="_Составной_контур_22" data-name="&lt;Составной контур&gt;" class="cls-7" d="M471.05,68.66H460.51V33.47h-4v-7a4.8,4.8,0,0,0,3.88-2,6.22,6.22,0,0,0,1.58-3.85h9.11Z"/></g></g></g></g></g></svg>