<?xml version="1.0" encoding="utf-8"?>
<!-- Generator: Adobe Illustrator 21.0.2, SVG Export Plug-In . SVG Version: 6.00 Build 0)  -->
<svg version="1.1" id="Слой_1" xmlns="http://www.w3.org/2000/svg" xmlns:xlink="http://www.w3.org/1999/xlink" x="0px" y="0px"
	 viewBox="0 0 342.7 424.4" style="enable-background:new 0 0 342.7 424.4;" xml:space="preserve">
<style type="text/css">
	.st0{fill:url(#XMLID_2_);}
	.st1{fill:url(#XMLID_3_);}
	.st2{fill:url(#XMLID_4_);}
	.st3{fill:url(#XMLID_5_);}
	.st4{fill:url(#XMLID_6_);}
</style>
<g id="XMLID_109_">
	<g id="XMLID_129_">
		<linearGradient id="XMLID_2_" gradientUnits="userSpaceOnUse" x1="90.9192" y1="197.5087" x2="281.0765" y2="197.5087">
			<stop  offset="0" style="stop-color:#495884"/>
			<stop  offset="0.1361" style="stop-color:#526D9B"/>
			<stop  offset="0.3861" style="stop-color:#618FBE"/>
			<stop  offset="0.6209" style="stop-color:#6CA7D8"/>
			<stop  offset="0.8323" style="stop-color:#73B6E8"/>
			<stop  offset="1" style="stop-color:#75BBED"/>
		</linearGradient>
		<path id="XMLID_135_" class="st0" d="M92,265.5c0,0-2.5,16.5,0,14.4c2.5-2.1,189-164.9,189-164.9L92,265.5z"/>
		<linearGradient id="XMLID_3_" gradientUnits="userSpaceOnUse" x1="92.0469" y1="212.216" x2="311.1013" y2="212.216">
			<stop  offset="0" style="stop-color:#495884"/>
			<stop  offset="0.1361" style="stop-color:#526D9B"/>
			<stop  offset="0.3861" style="stop-color:#618FBE"/>
			<stop  offset="0.6209" style="stop-color:#6CA7D8"/>
			<stop  offset="0.8323" style="stop-color:#73B6E8"/>
			<stop  offset="1" style="stop-color:#75BBED"/>
		</linearGradient>
		<path id="XMLID_134_" class="st1" d="M92,309.5c0-2.1,0-12.7,0-12.7L311.1,115L92,309.5z"/>
		<linearGradient id="XMLID_4_" gradientUnits="userSpaceOnUse" x1="92.0469" y1="233.3603" x2="340.7032" y2="233.3603">
			<stop  offset="0" style="stop-color:#495884"/>
			<stop  offset="0.1361" style="stop-color:#526D9B"/>
			<stop  offset="0.3861" style="stop-color:#618FBE"/>
			<stop  offset="0.6209" style="stop-color:#6CA7D8"/>
			<stop  offset="0.8323" style="stop-color:#73B6E8"/>
			<stop  offset="1" style="stop-color:#75BBED"/>
		</linearGradient>
		<polygon id="XMLID_133_" class="st2" points="92,351.8 92,327.7 340.7,115 244.3,204.8 338.2,351.8 250.6,351.8 189.1,254.3 
			166.9,273.3 168.2,351.8 		"/>
		<linearGradient id="XMLID_5_" gradientUnits="userSpaceOnUse" x1="92.0469" y1="179.231" x2="250.6288" y2="179.231">
			<stop  offset="0" style="stop-color:#495884"/>
			<stop  offset="0.1361" style="stop-color:#526D9B"/>
			<stop  offset="0.3861" style="stop-color:#618FBE"/>
			<stop  offset="0.6209" style="stop-color:#6CA7D8"/>
			<stop  offset="0.8323" style="stop-color:#73B6E8"/>
			<stop  offset="1" style="stop-color:#75BBED"/>
		</linearGradient>
		<path id="XMLID_130_" class="st3" d="M168.2,178v-61.3H92V246l158.6-133.6L168.2,178z M137.8,197.5H137h-13.3v-50.1
			c-0.7,0.4-1.4,0.7-2.3,1.1c-0.8,0.3-2,0.7-3.4,1h-0.8v-9.8c2.2-0.3,4-1.1,5.6-2.6c1.5-1.5,2.5-3.4,2.8-5.8h0.8h11.4V197.5z"/>
	</g>
	<g id="XMLID_125_">
		<linearGradient id="XMLID_6_" gradientUnits="userSpaceOnUse" x1="0" y1="212.216" x2="342.6757" y2="212.216">
			<stop  offset="0" style="stop-color:#495884"/>
			<stop  offset="0.1361" style="stop-color:#526D9B"/>
			<stop  offset="0.3861" style="stop-color:#618FBE"/>
			<stop  offset="0.6209" style="stop-color:#6CA7D8"/>
			<stop  offset="0.8323" style="stop-color:#73B6E8"/>
			<stop  offset="1" style="stop-color:#75BBED"/>
		</linearGradient>
		<path id="XMLID_126_" class="st4" d="M212.5,424.4c-38.2,0-73.6-9.6-106.2-28.7c-32.6-19.1-58.5-44.9-77.6-77.3
			C9.6,286.1,0,250.7,0,212.5c0-38.6,9.6-74.1,28.7-106.5c19.1-32.4,45-58.2,77.6-77.3C138.9,9.6,174.3,0,212.5,0
			c33,0,60.2,5.5,81.5,16.6c21.4,11.1,37.1,22.4,47.2,34c1.1,0.8,1.6,1.9,1.4,3.4c-0.2,1.5-0.8,2.6-2,3.4c-0.8,0.8-1.8,1-3.1,0.8
			c-1.3-0.2-2.3-0.6-3.1-1.4c-10.1-10.9-25.3-21.4-45.5-31.8c-20.2-10.3-45.7-15.5-76.5-15.5c-36.7,0-70.6,9.1-101.8,27.3
			C79.6,55,55,79.6,36.8,110.7c-18.2,31.1-27.3,65-27.3,101.8c0,36.7,9.1,70.6,27.3,101.8c18.2,31.1,42.8,55.8,73.9,73.9
			c31.1,18.2,65,27.3,101.8,27.3c26.2,0,50-4.9,71.4-14.6c21.4-9.7,38.2-19.5,50.6-29.2c0.7-0.7,1.8-1,3.1-0.8
			c1.3,0.2,2.3,0.7,3.1,1.4c1.1,1.1,1.6,2.4,1.4,3.9c-0.2,1.5-0.8,2.6-2,3.4c-13.5,10.5-31.2,20.6-53.1,30.4
			C265.1,419.6,240.2,424.4,212.5,424.4z M312.6,91.1c-2.6,1.1-4.7,0.9-6.2-0.6c-7.9-8.2-19.6-16.2-35.1-23.9
			c-15.6-7.7-35.1-11.5-58.7-11.5c-31.9,0-60.7,8.4-86.6,25.3c-1.1,0.8-2.3,1-3.7,0.8c-1.3-0.2-2.3-0.8-3.1-2
			c-1.5-2.6-0.9-4.9,1.7-6.7c27.7-18,58.3-27,91.6-27c25.5,0,46.5,4.1,63,12.4c16.5,8.2,29,16.9,37.7,25.9c0.7,1.1,1.1,2.4,1.1,3.9
			C314.2,89.2,313.7,90.3,312.6,91.1z"/>
	</g>
</g>
</svg>
