<?xml version="1.0" encoding="utf-8"?>
<svg xmlns="http://www.w3.org/2000/svg"
	xmlns:xlink="http://www.w3.org/1999/xlink"
	width="18px" height="14px" viewBox="0 0 18 14">
<path fillRule="evenodd" d="M 15.8 14C 15.8 14 2.2 14 2.2 14 0.99 14 0 12.99 0 11.75 0 11.75 0 2.25 0 2.25 0 1.01 0.99 0 2.2 0 2.2 0 15.8 0 15.8 0 17.02 0 18 1.01 18 2.25 18 2.25 18 11.75 18 11.75 18 12.99 17.01 14 15.8 14ZM 16.99 11.75C 16.99 11.75 16.99 2.25 16.99 2.25 16.99 1.58 16.46 1.03 15.8 1.03 15.8 1.03 2.2 1.03 2.2 1.03 1.54 1.03 1.01 1.58 1.01 2.25 1.01 2.25 1.01 11.75 1.01 11.75 1.01 12.42 1.54 12.97 2.2 12.97 2.2 12.97 15.8 12.97 15.8 12.97 16.46 12.97 17 12.42 17 11.75 17 11.75 16.99 11.75 16.99 11.75ZM 15.79 11.9C 15.69 12.01 15.56 12.06 15.43 12.06 15.3 12.06 15.18 12.01 15.08 11.92 15.08 11.92 10.6 7.57 10.6 7.57 10.6 7.57 9.35 8.72 9.35 8.72 9.26 8.81 9.13 8.85 9.01 8.85 8.89 8.85 8.77 8.81 8.68 8.72 8.68 8.72 7.46 7.61 7.46 7.61 7.46 7.61 2.95 11.91 2.95 11.91 2.86 12.01 2.73 12.05 2.61 12.05 2.48 12.05 2.34 11.99 2.24 11.89 2.05 11.68 2.06 11.35 2.26 11.16 2.26 11.16 6.7 6.92 6.7 6.92 6.7 6.92 2.25 2.85 2.25 2.85 2.04 2.66 2.02 2.33 2.2 2.12 2.39 1.91 2.71 1.89 2.92 2.08 2.92 2.08 7.74 6.49 7.74 6.49 7.77 6.51 7.79 6.53 7.82 6.56 7.82 6.56 7.82 6.57 7.82 6.57 7.82 6.57 9.01 7.65 9.01 7.65 9.01 7.65 15.08 2.08 15.08 2.08 15.29 1.89 15.61 1.91 15.79 2.12 15.98 2.33 15.96 2.66 15.75 2.85 15.75 2.85 11.35 6.88 11.35 6.88 11.35 6.88 15.77 11.17 15.77 11.17 15.97 11.37 15.98 11.69 15.79 11.9Z" fill="rgb(0,193,205)"/></svg>